<svg xmlns="http://www.w3.org/2000/svg" width="821" height="820" viewBox="0 0 821 820">
<g>
<path d="M 821.00 0.00 L 821.00 820.00 L 0.00 820.00 L 194.25 819.89 C365.73,819.78 386.86,819.61 374.50,818.40 C329.45,813.97 284.55,802.39 247.00,785.52 C216.86,771.98 179.54,750.46 177.65,745.54 C177.33,744.69 176.26,744.00 175.27,744.00 C173.04,744.00 157.49,732.40 143.83,720.53 C124.54,703.78 89.00,665.48 89.00,661.44 C89.00,660.65 88.65,660.00 88.22,660.00 C87.79,660.00 86.89,658.76 86.22,657.25 C84.17,652.64 81.59,648.58 79.86,647.28 C78.96,646.60 77.94,644.91 77.60,643.53 C77.25,642.14 76.61,641.12 76.17,641.26 C75.73,641.39 73.90,640.03 72.10,638.24 C69.23,635.38 68.39,633.82 68.08,630.75 C68.03,630.34 67.44,629.98 66.75,629.96 C65.65,629.93 60.00,622.15 60.00,620.66 C60.00,620.35 58.90,618.47 57.55,616.48 C56.21,614.50 55.37,612.19 55.70,611.35 C56.05,610.43 55.24,608.85 53.68,607.40 C52.24,606.07 51.30,604.38 51.58,603.65 C51.86,602.92 51.40,601.74 50.55,601.04 C49.70,600.33 48.99,600.15 48.98,600.63 C48.94,603.00 47.02,598.09 46.98,595.50 C46.93,592.35 44.77,588.57 43.65,589.68 C43.29,590.04 42.99,588.80 42.98,586.92 C42.97,582.99 42.24,581.63 39.67,580.68 C38.25,580.15 37.94,579.24 38.29,576.61 C38.79,572.91 37.80,570.50 35.79,570.50 C35.02,570.50 34.26,568.72 33.91,566.11 C33.59,563.69 32.58,561.17 31.66,560.50 C30.57,559.70 30.00,557.84 30.00,555.09 C30.00,551.95 29.40,550.35 27.58,548.66 C25.69,546.91 25.17,545.41 25.17,541.73 C25.17,538.48 24.52,536.21 23.08,534.38 C21.94,532.92 21.00,530.28 21.00,528.51 C21.00,524.20 19.20,519.29 17.37,518.59 C16.55,518.27 16.17,517.53 16.54,516.93 C17.82,514.86 15.92,504.91 13.92,503.20 C12.27,501.79 12.00,500.18 12.00,491.91 C12.00,484.06 11.66,481.83 10.15,479.88 C8.76,478.09 8.14,474.97 7.65,467.27 C7.17,459.84 6.43,455.96 4.92,453.07 C2.91,449.22 2.85,447.90 3.17,413.79 C3.47,382.17 3.68,378.23 5.25,375.93 C6.64,373.89 7.13,370.21 7.66,358.18 C8.02,349.83 8.65,343.00 9.06,343.00 C10.63,343.00 12.00,336.39 12.00,328.85 C12.00,323.54 12.38,321.00 13.17,321.00 C13.81,321.00 14.05,320.72 13.71,320.38 C13.37,320.04 13.69,319.16 14.43,318.43 C15.16,317.70 16.08,314.11 16.47,310.46 C16.95,305.97 17.80,303.20 19.09,301.91 C20.44,300.56 21.00,298.59 21.00,295.15 C21.00,291.58 21.52,289.84 23.00,288.50 C24.33,287.29 25.00,285.42 25.00,282.89 C25.00,280.48 25.92,277.74 27.50,275.40 C29.17,272.95 30.00,270.35 30.00,267.60 C30.00,264.56 30.53,263.15 32.00,262.23 C33.32,261.41 34.00,259.90 34.00,257.81 C34.00,256.04 34.86,253.71 35.94,252.56 C37.00,251.43 38.11,249.21 38.39,247.62 C38.68,246.04 39.83,244.11 40.96,243.32 C42.08,242.53 43.00,240.80 43.00,239.48 C43.00,238.09 43.85,236.62 45.00,236.00 C46.29,235.31 47.00,233.91 47.00,232.04 C47.00,230.42 48.10,227.85 49.50,226.18 C50.88,224.55 52.00,222.15 52.00,220.85 C52.00,219.55 52.90,217.92 54.00,217.23 C55.10,216.55 56.00,214.93 56.00,213.65 C56.00,212.36 56.90,210.50 58.00,209.50 C59.10,208.50 60.00,206.84 60.00,205.80 C60.00,204.76 61.12,202.70 62.50,201.22 C63.88,199.73 65.00,197.80 65.00,196.92 C65.00,196.03 65.90,194.50 67.00,193.50 C68.10,192.50 69.00,191.07 69.00,190.31 C69.00,189.56 69.66,188.68 70.46,188.38 C71.27,188.07 72.20,186.93 72.55,185.85 C72.89,184.77 75.16,181.89 77.59,179.47 C80.01,177.04 82.00,174.48 82.01,173.78 C82.02,173.07 83.65,170.93 85.65,169.00 C87.65,167.07 89.90,164.04 90.65,162.25 C91.41,160.46 92.49,159.00 93.07,159.00 C93.64,159.00 94.57,157.65 95.15,156.00 C95.73,154.35 96.61,153.00 97.12,153.00 C97.63,153.00 98.56,151.88 99.18,150.50 C99.81,149.12 100.81,148.00 101.41,148.00 C102.46,148.00 103.03,147.27 107.50,140.18 C108.60,138.44 109.84,137.01 110.27,137.01 C110.94,137.00 117.51,130.45 129.20,118.13 C132.38,114.78 138.28,109.55 146.97,102.37 C148.88,100.79 151.19,98.82 152.10,98.00 C153.00,97.18 155.68,94.93 158.05,93.00 C160.41,91.07 163.38,88.60 164.63,87.50 C165.88,86.40 168.05,84.60 169.44,83.50 C170.84,82.40 173.22,80.47 174.74,79.22 C179.36,75.41 179.57,75.27 182.08,74.48 C184.45,73.74 186.46,72.40 192.50,67.52 C194.15,66.19 198.20,63.67 201.50,61.92 C204.80,60.17 207.73,58.42 208.00,58.04 C208.27,57.65 211.54,55.91 215.25,54.17 C218.96,52.43 222.00,50.55 222.00,50.00 C222.00,49.45 223.06,49.00 224.37,49.00 C225.67,49.00 227.80,48.18 229.12,47.17 C230.43,46.16 232.29,45.05 233.25,44.70 C234.21,44.35 235.00,43.64 235.00,43.12 C235.00,42.60 236.83,41.87 239.07,41.49 C241.31,41.11 243.36,40.21 243.64,39.50 C243.91,38.78 245.64,37.92 247.47,37.57 C249.30,37.23 251.35,36.28 252.02,35.47 C252.69,34.66 254.25,34.00 255.49,34.00 C256.72,34.00 258.90,33.08 260.33,31.96 C261.76,30.83 263.17,29.93 263.46,29.96 C266.34,30.20 268.09,29.76 269.36,28.50 C270.18,27.67 272.39,27.00 274.27,27.00 C276.42,27.00 278.36,26.26 279.50,25.00 C280.69,23.68 282.58,23.00 285.03,23.00 C287.08,23.00 289.30,22.35 289.96,21.55 C290.62,20.75 293.14,19.80 295.55,19.44 C297.96,19.08 300.46,18.16 301.09,17.39 C301.73,16.63 303.65,16.00 305.37,15.99 C310.32,15.97 316.01,14.82 315.47,13.94 C314.67,12.66 319.09,11.66 324.54,11.90 C328.34,12.07 330.21,11.62 332.19,10.06 C334.31,8.39 336.25,8.00 342.33,8.00 C350.14,8.00 353.34,7.36 352.49,5.98 C351.67,4.66 356.31,4.28 378.50,3.89 C424.99,3.05 470.46,4.21 472.78,6.28 C473.98,7.35 477.25,7.91 483.65,8.15 C490.35,8.41 493.29,8.94 494.65,10.15 C495.86,11.23 499.07,11.97 504.00,12.32 C512.59,12.92 522.71,15.55 536.00,20.62 C537.92,21.35 541.65,22.47 544.27,23.10 C546.89,23.73 549.28,24.64 549.58,25.12 C549.87,25.61 550.90,26.00 551.85,26.00 C552.80,26.00 555.34,26.90 557.50,28.00 C559.66,29.10 562.14,30.00 563.02,30.00 C563.90,30.00 565.49,30.66 566.56,31.47 C567.63,32.28 569.10,32.95 569.84,32.97 C573.46,33.05 606.00,48.87 606.00,50.54 C606.00,52.30 611.71,56.00 614.42,56.00 C615.91,56.00 617.37,56.82 618.00,58.00 C618.70,59.31 620.09,60.00 622.04,60.00 C623.67,60.00 625.00,60.45 625.00,61.00 C625.00,61.55 625.58,62.00 626.30,62.00 C629.10,62.00 658.39,82.94 674.50,96.47 C687.24,107.17 706.12,125.35 705.89,126.71 C705.53,128.91 706.14,130.16 707.37,129.69 C711.20,128.22 749.04,175.78 761.85,198.17 C762.90,200.00 765.43,204.43 767.48,208.00 C778.99,228.08 791.89,256.92 798.79,278.00 C811.09,315.58 816.14,339.61 819.48,376.41 C820.57,388.38 820.78,361.09 820.88,195.25 L 821.00 0.00 ZM 393.00 785.93 L 393.03 785.93 C407.54,786.59 413.35,786.86 419.16,786.74 C423.04,786.66 426.92,786.41 433.39,785.99 C483.85,782.73 535.13,768.90 578.50,746.87 C591.12,740.46 611.73,728.56 618.50,723.76 C620.70,722.21 625.42,718.95 629.00,716.52 C653.71,699.76 692.88,661.58 711.78,635.83 C714.07,632.71 719.94,624.16 724.82,616.83 C756.39,569.43 776.55,514.38 784.65,453.46 C787.06,435.35 787.07,387.08 784.67,368.00 C780.88,337.85 771.18,299.09 760.84,272.82 C753.71,254.69 737.12,222.08 727.60,207.50 C712.01,183.60 697.50,165.59 678.00,145.96 C646.93,114.67 615.76,91.89 578.50,73.25 C540.57,54.27 497.78,41.52 455.00,36.45 C436.49,34.25 401.77,33.50 384.04,34.91 C311.41,40.69 245.31,65.13 188.00,107.38 C113.37,162.41 61.44,243.91 42.61,335.57 C38.86,353.83 37.17,367.59 35.85,390.68 C31.97,458.79 46.40,524.39 78.95,586.60 C95.83,618.88 121.20,652.35 150.13,680.52 C214.29,742.98 303.78,781.83 393.00,785.93 ZM 455.00 771.53 C443.01,773.06 396.49,774.34 387.50,773.37 C370.21,771.52 348.58,768.45 338.88,766.47 C290.39,756.60 242.97,736.23 202.01,707.68 C153.57,673.91 113.03,626.91 86.25,573.50 C57.19,515.53 44.10,448.24 49.00,382.00 C51.53,347.82 60.13,309.56 72.17,278.90 C78.59,262.54 93.86,231.65 101.43,219.68 C144.71,151.27 204.12,101.57 277.77,72.15 C307.63,60.22 341.13,52.22 377.00,48.44 C396.19,46.42 438.09,46.91 456.50,49.37 C494.16,54.40 528.96,64.48 563.85,80.46 C601.86,97.88 642.60,126.61 671.50,156.39 C715.77,202.00 747.07,257.82 762.95,319.50 C768.91,342.64 773.32,372.71 774.54,398.50 C775.71,423.14 772.42,459.12 766.51,486.50 C750.16,562.27 708.50,633.30 651.00,683.42 C623.53,707.37 584.41,731.97 551.59,745.93 C522.20,758.43 489.46,767.11 455.00,771.53 ZM 391.50 765.42 C413.94,767.13 415.61,767.16 426.33,766.04 C431.37,765.52 441.12,764.58 448.00,763.97 C517.52,757.75 587.99,727.12 643.37,679.06 C648.79,674.35 654.21,669.74 655.40,668.82 C659.55,665.61 683.92,638.44 691.56,628.50 C713.89,599.46 731.15,568.53 744.41,533.80 C754.39,507.69 762.52,473.04 765.45,444.24 C771.86,381.12 758.35,309.61 729.03,251.50 C711.36,216.47 685.60,181.17 659.34,155.98 C596.69,95.89 518.02,60.77 435.17,55.91 C381.83,52.78 330.04,60.79 281.50,79.67 C267.55,85.09 237.81,99.79 226.60,106.81 C212.10,115.88 197.21,126.34 187.75,134.08 C177.13,142.77 146.77,172.20 141.50,178.90 C139.85,181.00 135.90,185.93 132.72,189.84 C124.92,199.46 110.60,220.31 103.57,232.31 C91.72,252.51 79.32,280.61 72.16,303.50 C55.38,357.15 51.51,415.55 61.04,471.35 C73.31,543.20 106.96,607.95 160.15,662.07 C189.60,692.03 237.01,723.54 276.04,739.08 C312.93,753.77 350.10,762.25 391.50,765.42 ZM 453.00 673.63 C440.53,675.69 433.20,676.25 415.50,676.53 C393.47,676.87 387.16,676.46 368.50,673.47 C318.72,665.51 270.87,642.83 233.52,609.51 C200.99,580.49 177.69,547.23 161.68,507.00 C149.41,476.15 144.56,448.80 144.59,410.50 C144.62,372.27 148.80,348.65 161.69,314.00 C165.20,304.55 176.02,282.10 180.41,275.14 C193.62,254.21 199.57,246.16 212.51,231.67 C229.28,212.90 253.27,193.09 273.50,181.31 C296.46,167.94 326.64,155.85 350.00,150.66 C374.30,145.25 382.28,144.50 414.50,144.54 C444.39,144.59 444.56,144.60 460.00,147.83 C486.04,153.27 505.48,159.81 527.50,170.57 C554.24,183.62 569.20,193.88 594.10,216.21 C601.62,222.96 612.35,235.04 623.68,249.50 C649.18,282.07 667.09,324.91 674.19,370.32 C677.20,389.56 677.47,431.33 674.69,449.00 C670.35,476.67 664.96,495.56 654.97,518.16 C622.33,592.01 556.55,647.93 478.06,668.57 C472.80,669.95 461.52,672.23 453.00,673.63 ZM 392.00 671.35 C400.40,672.14 425.65,671.91 435.14,670.97 C489.19,665.58 539.93,643.86 582.50,607.86 C628.35,569.11 660.35,510.33 669.56,448.00 C674.92,411.67 671.66,368.99 660.88,334.42 C651.20,303.38 639.72,280.11 622.69,257.00 C596.59,221.60 567.32,196.61 529.09,177.11 C502.95,163.77 478.45,155.89 447.50,150.84 C436.80,149.10 392.88,149.09 379.00,150.83 C343.07,155.33 311.86,165.67 280.49,183.48 C224.20,215.44 179.69,270.67 160.56,332.29 C156.47,345.48 155.49,349.67 152.95,364.88 C146.19,405.41 148.58,448.15 159.69,485.00 C165.23,503.39 172.79,520.83 183.97,541.00 C200.90,571.56 232.03,604.77 264.50,626.89 C301.25,651.94 344.04,666.86 392.00,671.35 ZM 454.10 663.60 C441.90,665.74 435.64,666.22 416.00,666.51 C389.67,666.91 380.04,666.19 362.20,662.48 C335.54,656.93 318.33,650.98 294.31,639.03 C246.08,615.04 209.11,578.40 183.15,528.87 C169.78,503.36 160.80,475.98 156.32,447.00 C153.77,430.52 153.77,389.13 156.32,373.00 C165.89,312.53 194.20,259.62 238.16,220.05 C287.55,175.60 345.23,153.93 414.50,153.80 C475.60,153.68 533.67,176.07 581.42,218.15 C621.83,253.76 650.85,304.33 662.02,358.61 C667.24,383.95 669.00,418.73 666.14,440.00 C660.06,485.31 644.62,524.93 618.99,561.00 C609.78,573.96 606.72,577.48 591.57,592.50 C553.64,630.10 506.70,654.38 454.10,663.60 ZM 387.00 663.42 C388.38,663.65 400.98,663.70 415.00,663.54 C435.46,663.31 442.84,662.84 452.33,661.16 C507.71,651.37 555.60,626.01 594.52,585.87 C626.36,553.03 648.52,511.46 658.96,465.00 C661.80,452.39 665.00,423.97 665.00,411.50 C664.99,399.92 661.92,372.21 658.95,357.00 C656.24,343.12 647.57,317.31 640.81,303.00 C633.47,287.47 622.50,269.08 613.20,256.71 C598.65,237.36 573.42,213.25 554.17,200.31 C542.70,192.60 542.22,192.33 522.00,182.20 C486.95,164.66 453.29,156.74 413.50,156.68 C352.75,156.58 297.48,175.48 252.40,211.77 C239.98,221.77 216.29,246.14 207.07,258.40 C183.21,290.15 165.17,333.59 159.49,373.01 C157.68,385.52 155.87,433.16 157.16,434.05 C157.60,434.35 158.64,439.75 159.47,446.05 C162.19,466.72 168.89,490.63 177.59,510.70 C201.72,566.40 247.31,614.09 300.00,638.77 C323.84,649.93 354.27,659.25 375.50,661.89 C380.45,662.50 385.62,663.19 387.00,663.42 ZM 491.24 601.36 C489.73,602.13 487.15,603.01 485.50,603.32 C478.78,604.59 462.19,597.62 460.94,593.00 C460.57,591.62 458.63,588.09 456.63,585.15 C454.63,582.21 453.00,578.94 453.00,577.90 C453.00,576.85 452.55,576.00 452.00,576.00 C451.45,576.00 450.99,577.24 450.98,578.75 L 450.96 581.50 L 447.41 576.89 L 444.21 579.95 C441.67,582.38 440.15,583.00 436.73,583.00 C434.37,583.00 431.40,582.27 430.11,581.37 C427.18,579.31 424.05,572.53 424.02,568.17 L 424.00 564.84 L 417.27 565.56 C406.62,566.70 387.31,566.47 377.50,565.08 C346.43,560.70 315.20,547.97 294.51,531.28 C271.39,512.62 255.30,489.59 241.44,455.32 C233.33,435.26 224.00,394.51 224.00,379.15 C224.00,367.50 231.36,358.35 247.60,349.81 C271.08,337.46 303.75,328.80 339.59,325.44 L 346.69 324.77 L 347.35 333.41 C347.72,338.16 348.12,342.60 348.26,343.27 C348.41,344.05 347.02,344.60 344.50,344.76 C327.74,345.86 298.46,351.17 284.50,355.65 C277.22,357.99 265.94,363.75 262.63,366.83 C249.28,379.24 263.57,391.80 302.00,401.46 C325.91,407.46 355.10,410.40 390.50,410.38 C437.23,410.34 473.54,404.82 499.65,393.80 C510.17,389.36 518.00,382.06 518.00,376.70 C518.00,365.18 496.03,354.76 457.50,348.00 C448.12,346.35 419.52,344.01 408.75,344.01 C400.64,344.00 399.00,343.74 399.00,342.46 C399.00,340.49 402.43,333.74 406.28,328.11 L 409.29 323.71 L 421.54 324.37 C453.51,326.07 485.59,332.40 510.28,341.88 C535.31,351.48 547.42,360.96 550.38,373.25 C550.97,375.71 551.49,376.00 555.27,376.01 C560.33,376.03 571.01,378.44 574.86,380.43 C579.47,382.81 587.89,390.96 590.70,395.74 C594.18,401.69 597.00,412.11 596.99,418.98 C596.97,425.28 592.58,439.02 588.74,444.81 C580.82,456.71 567.23,467.11 550.38,474.15 C541.34,477.93 524.48,482.32 522.79,481.34 C522.39,481.11 523.64,478.87 525.56,476.35 C527.48,473.84 530.73,468.91 532.77,465.41 C535.71,460.39 537.24,458.79 540.00,457.88 C552.19,453.86 564.18,444.53 568.74,435.52 C571.46,430.16 572.74,420.74 571.58,414.57 C570.75,410.16 566.01,404.55 560.88,401.94 C556.58,399.75 549.73,399.37 548.28,401.25 C547.76,401.94 545.85,407.21 544.06,412.97 C535.95,438.94 520.83,468.27 507.45,484.00 C484.38,511.10 461.79,525.48 432.11,531.93 C414.90,535.67 407.92,535.93 392.50,533.40 C361.26,528.28 334.65,514.67 309.77,491.10 C297.31,479.29 283.58,460.08 276.28,444.25 C274.94,441.36 273.63,439.00 273.35,439.00 C272.28,439.00 274.39,445.99 279.09,458.03 C287.62,479.87 300.54,498.38 318.26,514.15 C338.18,531.90 358.37,542.51 390.47,552.11 C399.69,554.87 422.51,560.00 425.58,560.00 C426.30,560.00 428.91,557.37 431.39,554.15 C438.72,544.62 453.30,537.00 464.20,537.00 C476.71,537.00 485.21,548.43 480.97,559.57 C480.01,562.11 480.41,562.69 487.90,569.65 C497.70,578.75 500.05,583.62 498.12,590.86 C496.55,596.76 494.69,599.60 491.24,601.36 ZM 444.00 818.90 C443.89,818.92 443.84,818.93 443.84,818.94 C443.84,819.40 522.24,819.80 628.75,819.87 L 821.00 820.00 L 820.83 624.25 C820.74,517.93 820.52,432.46 820.34,432.46 C820.34,432.46 820.34,432.47 820.34,432.50 C815.91,486.92 807.68,523.20 790.32,564.91 C778.40,593.52 763.88,620.64 749.91,640.37 C746.74,644.84 742.66,650.66 740.83,653.31 C705.68,704.09 644.09,754.56 583.50,782.23 C538.36,802.85 501.84,812.45 444.00,818.90 ZM 547.31 594.41 C544.74,595.28 540.81,595.97 538.57,595.94 C523.24,595.72 496.94,578.32 492.66,565.57 C489.04,554.82 492.01,545.26 500.63,539.91 C504.15,537.72 505.58,537.50 516.25,537.50 C526.90,537.50 528.00,537.34 528.00,535.70 C528.00,532.69 530.61,528.61 535.32,524.27 C544.27,516.02 554.49,512.62 570.50,512.55 C583.28,512.49 589.22,513.91 594.52,518.28 C599.31,522.23 602.98,530.02 602.99,536.29 C603.02,550.21 587.73,561.58 564.93,564.60 L 560.19 565.23 L 561.21 568.18 C564.19,576.72 556.47,591.29 547.31,594.41 ZM 363.26 350.75 C362.96,356.94 362.39,362.00 361.99,362.00 C361.58,362.00 359.75,357.61 357.92,352.25 C354.84,343.22 354.59,341.54 354.55,329.50 C354.47,308.09 358.11,299.43 379.67,269.83 C393.29,251.13 400.32,238.06 404.14,224.35 C405.86,218.15 406.32,213.76 406.34,203.50 C406.36,190.91 405.37,184.97 400.39,167.50 C399.23,163.41 405.26,173.39 410.53,184.26 C418.03,199.72 419.48,205.70 419.44,221.00 C419.41,231.39 418.95,235.14 416.74,243.21 C412.54,258.48 405.11,271.89 388.70,293.82 C369.08,320.02 364.20,330.95 363.26,350.75 ZM 387.52 353.29 C386.61,356.41 385.53,362.68 385.11,367.23 C384.69,371.78 384.07,374.83 383.73,374.00 C381.73,369.15 379.83,361.91 378.90,355.66 C376.21,337.57 384.12,323.54 415.19,291.24 C422.73,283.39 430.89,274.39 433.31,271.24 C441.73,260.29 448.00,244.56 448.00,234.39 C448.00,229.27 449.14,227.33 450.34,230.43 C450.64,231.22 451.38,235.45 451.98,239.82 C452.87,246.36 452.78,249.17 451.46,255.64 C448.36,270.81 442.38,280.31 422.55,301.50 C404.86,320.41 399.08,327.92 393.18,339.63 C390.97,344.03 388.42,350.18 387.52,353.29 ZM 533.77 140.45 C525.61,143.86 513.48,140.93 507.80,134.17 C496.04,120.20 507.70,97.87 526.06,99.20 C538.30,100.08 546.02,108.33 545.98,120.46 C545.94,130.31 541.79,137.10 533.77,140.45 ZM 323.37 134.34 C317.46,135.32 317.08,135.20 316.42,132.25 C316.07,130.74 314.97,126.57 313.96,123.00 C312.95,119.43 311.17,112.68 310.01,108.00 C308.85,103.32 307.67,98.71 307.38,97.75 C307.02,96.51 307.67,95.70 309.61,94.96 C315.29,92.80 327.09,90.00 330.52,90.00 C334.62,90.00 339.51,93.17 341.60,97.20 C343.44,100.75 343.39,108.48 341.50,111.36 C340.06,113.56 340.23,113.88 345.54,118.95 C348.59,121.86 350.93,124.72 350.73,125.31 C350.54,125.89 347.97,127.04 345.02,127.86 L 339.66 129.35 L 335.53 124.59 C332.08,120.61 330.92,119.88 328.45,120.16 C326.17,120.42 325.56,120.95 325.75,122.50 C325.89,123.60 326.29,126.57 326.63,129.10 L 327.24 133.70 ZM 644.52 224.16 C643.64,227.27 642.28,230.06 641.50,230.36 C640.65,230.69 638.94,229.42 637.21,227.20 C632.81,221.53 632.78,221.39 635.04,216.13 C636.21,213.41 637.01,210.14 636.83,208.86 C636.44,206.13 633.10,205.08 631.86,207.29 C631.39,208.12 629.46,209.71 627.56,210.83 L 624.10 212.88 L 621.05 209.40 C619.37,207.49 618.00,205.77 618.00,205.57 C618.00,203.74 646.45,179.00 648.55,179.00 C649.27,179.00 650.87,180.46 652.11,182.25 C653.34,184.04 656.53,187.84 659.18,190.69 C661.83,193.54 664.07,196.92 664.16,198.19 C664.81,207.85 659.12,216.00 651.74,216.00 C648.07,216.00 646.27,218.03 644.52,224.16 ZM 582.18 164.83 C577.93,172.09 577.74,172.26 575.59,170.69 C574.36,169.79 572.75,165.03 570.59,155.93 C568.84,148.54 567.01,142.57 566.53,142.66 C566.04,142.75 563.88,146.23 561.73,150.41 C559.58,154.58 557.37,158.00 556.84,158.00 C556.30,158.00 553.87,156.84 551.45,155.42 L 547.04 152.83 L 548.66 149.69 C549.56,147.96 552.18,143.61 554.49,140.02 C556.80,136.44 560.90,130.02 563.60,125.76 C571.01,114.06 571.51,114.42 575.91,134.77 C577.49,142.06 578.22,145.42 579.42,145.59 C580.44,145.75 581.82,143.58 584.36,139.56 L 584.37 139.55 C586.99,135.42 589.53,131.79 590.03,131.48 C591.24,130.73 599.00,134.75 599.00,136.13 C599.00,136.72 595.96,142.15 592.25,148.19 C588.54,154.22 584.01,161.71 582.18,164.83 ZM 437.78 105.25 C437.62,113.91 437.27,120.95 437.00,120.88 C436.73,120.82 435.30,120.48 433.84,120.13 C432.18,119.74 428.09,116.01 422.99,110.25 C418.49,105.16 414.40,101.00 413.90,101.00 C412.99,101.00 412.44,109.30 412.89,116.25 L 413.13 120.00 L 400.71 120.00 L 401.35 113.25 C401.70,109.54 401.99,100.36 401.99,92.87 C402.00,79.58 402.06,79.22 404.25,78.62 C406.14,78.11 408.01,79.63 415.84,88.00 C424.23,96.98 427.24,99.50 426.88,97.25 C426.82,96.84 426.82,92.56 426.88,87.75 L 427.00 79.00 L 439.23 79.00 L 438.64 84.25 C438.32,87.14 437.93,96.59 437.78,105.25 ZM 115.16 440.71 C108.76,445.59 107.53,445.20 107.38,438.25 C107.31,435.09 106.07,428.23 104.63,423.00 C101.38,411.26 101.21,402.43 104.07,393.77 C106.84,385.37 108.24,383.59 111.43,384.39 C114.67,385.21 120.42,390.95 122.94,395.89 C130.22,410.14 126.40,432.14 115.16,440.71 ZM 718.16 437.06 C714.71,445.94 714.27,446.29 709.42,444.10 C707.18,443.08 704.38,441.03 703.21,439.54 C694.23,428.12 694.44,404.29 703.63,392.24 C706.17,388.92 712.60,385.26 713.80,386.46 C714.12,386.78 714.27,389.17 714.13,391.77 C713.96,395.09 714.98,399.74 717.55,407.32 C720.71,416.66 721.16,419.07 720.77,424.82 C720.52,428.50 719.35,434.00 718.16,437.06 ZM 164.68 253.15 C155.69,257.76 145.72,255.90 139.09,248.36 C132.90,241.33 131.91,232.86 136.28,224.42 C138.59,219.96 145.27,214.30 149.84,212.93 C153.93,211.71 160.47,212.33 161.53,214.04 C161.85,214.57 160.86,216.80 159.31,218.98 C157.32,221.81 155.77,222.96 153.97,222.98 C151.36,223.00 147.40,225.26 145.28,227.95 C143.33,230.42 143.76,236.42 146.09,239.39 C151.00,245.63 157.92,246.66 162.81,241.88 C166.08,238.69 167.02,234.16 165.06,231.07 C164.43,230.07 165.07,228.30 167.18,225.24 L 170.20 220.84 L 172.50 223.00 C175.30,225.63 177.34,233.13 176.43,237.39 C174.90,244.50 170.78,250.02 164.68,253.15 ZM 193.85 214.32 C194.04,217.95 193.59,219.00 190.66,221.85 L 187.25 225.15 L 181.12 210.62 C177.75,202.63 173.83,192.87 172.40,188.92 C170.03,182.35 169.95,181.62 171.42,180.15 C173.32,178.25 175.16,178.70 199.99,187.21 C210.61,190.85 215.57,193.03 215.79,194.14 C215.97,195.07 214.40,197.10 212.11,198.91 C209.04,201.34 207.53,201.92 205.54,201.42 C203.39,200.88 202.19,201.54 198.30,205.44 C194.08,209.66 193.65,210.51 193.85,214.32 ZM 484.29 124.27 C474.69,129.86 458.40,125.39 453.40,115.80 C451.82,112.76 451.50,100.42 452.90,96.82 C454.07,93.81 459.58,88.27 463.30,86.34 C464.91,85.51 468.55,84.59 471.40,84.30 C481.85,83.22 493.00,91.21 493.00,99.78 L 493.00 103.26 L 488.81 102.59 C485.68,102.09 483.68,100.91 480.96,97.96 C478.21,94.98 476.54,94.00 474.20,94.00 C467.29,94.00 463.00,98.59 463.00,105.97 C463.00,111.17 464.25,113.56 467.98,115.49 C472.34,117.74 476.29,117.39 479.01,114.49 C480.31,113.11 482.07,112.17 482.93,112.40 C483.79,112.64 486.21,113.11 488.30,113.47 L 492.09 114.11 L 489.80 118.25 C488.53,120.53 486.06,123.24 484.29,124.27 ZM 104.09 441.26 C102.66,445.03 98.61,444.90 93.18,440.90 C88.21,437.24 84.80,431.74 82.46,423.57 C77.86,407.54 86.05,387.58 98.68,384.07 C106.15,382.00 106.26,382.21 102.27,390.75 C99.03,397.67 98.64,399.41 98.58,407.00 C98.52,413.73 99.07,417.17 101.20,423.50 C104.71,433.90 105.37,437.91 104.09,441.26 ZM 727.60 443.71 C723.80,445.68 718.14,447.04 717.57,446.11 C717.34,445.74 718.80,442.10 720.83,438.03 C724.18,431.26 724.49,429.93 724.41,422.56 C724.34,415.75 723.75,413.07 720.66,405.29 C717.06,396.23 716.43,392.71 717.63,388.25 C718.86,383.65 728.13,387.03 733.90,394.19 C745.68,408.83 742.21,436.14 727.60,443.71 ZM 376.52 122.43 C375.96,122.51 375.43,122.58 374.91,122.65 C365.12,123.93 362.81,124.24 362.04,123.29 C361.76,122.94 361.68,122.44 361.52,121.75 C360.41,116.86 357.30,84.46 357.89,83.79 C358.60,82.99 376.12,80.01 380.16,80.00 C382.50,80.00 382.91,80.50 383.51,84.07 C383.89,86.30 383.94,88.39 383.63,88.71 C383.31,89.02 380.01,89.78 376.28,90.39 C370.26,91.38 369.46,91.77 369.16,93.90 C368.82,96.31 368.83,96.31 376.28,95.68 L 383.75 95.05 L 384.29 98.27 C384.59,100.05 385.14,102.29 385.52,103.25 C386.12,104.76 385.60,105.00 381.73,105.00 C379.27,105.00 375.82,105.29 374.07,105.64 C371.23,106.20 370.93,106.60 371.20,109.39 C371.54,112.87 372.67,113.10 382.63,111.69 L 387.77 110.96 L 388.46 115.57 C388.84,118.11 389.00,120.34 388.81,120.53 C388.62,120.71 383.09,121.57 376.52,122.43 ZM 264.85 159.68 C260.09,162.61 256.04,164.99 255.85,164.99 C255.19,164.97 248.36,154.47 240.95,142.10 C234.85,131.91 233.79,129.54 235.01,128.81 C249.84,119.92 255.41,116.95 256.48,117.36 C258.14,117.99 261.15,123.95 260.41,125.14 C260.10,125.64 257.19,127.39 253.93,129.04 C248.51,131.77 248.11,132.20 249.23,133.99 C251.19,137.13 252.45,137.05 257.77,133.47 L 262.79 130.09 L 265.40 134.02 C266.83,136.19 268.00,138.16 268.00,138.41 C268.00,138.65 265.52,140.27 262.50,142.00 C256.81,145.26 256.13,146.43 258.25,149.33 C259.40,150.90 260.02,150.76 266.20,147.48 L 272.90 143.92 L 274.35 146.21 C276.98,150.39 277.31,152.94 275.32,153.68 C274.32,154.05 269.61,156.75 264.85,159.68 ZM 574.63 696.92 C572.78,698.06 571.07,699.00 570.84,699.00 C570.61,699.00 568.87,696.41 566.98,693.25 C565.09,690.09 560.94,683.51 557.77,678.64 C551.58,669.13 551.23,668.23 553.43,667.39 C555.12,666.74 568.33,669.73 572.12,671.61 C575.42,673.25 575.99,672.67 576.05,667.58 C576.13,659.99 578.37,650.55 580.17,650.21 C580.46,650.15 580.69,650.08 580.92,650.07 C582.31,650.05 583.75,652.33 597.23,673.72 C597.90,674.78 598.59,675.89 599.32,677.04 L 601.15 679.94 L 597.82 681.97 C596.00,683.08 593.94,683.99 593.26,684.00 C592.58,684.00 590.38,681.53 588.38,678.52 C584.71,672.99 583.01,672.29 582.99,676.31 C582.98,677.51 582.69,679.56 582.34,680.85 C581.70,683.27 580.96,683.32 574.25,681.41 C571.17,680.53 571.36,682.23 575.00,688.15 C576.65,690.84 578.00,693.44 578.00,693.93 C578.00,694.43 576.48,695.77 574.63,696.92 ZM 666.42 259.91 C664.48,261.06 662.55,262.00 662.14,262.00 C660.47,262.00 648.88,243.86 649.19,241.71 C649.41,240.11 653.75,236.69 665.00,229.25 C673.53,223.62 681.03,219.01 681.68,219.00 C682.32,219.00 683.90,220.74 685.18,222.87 C686.45,225.00 689.23,229.31 691.34,232.47 L 695.19 238.20 L 692.41 241.10 C690.88,242.69 689.15,244.00 688.56,243.99 C687.98,243.99 685.92,241.51 684.00,238.47 C681.43,234.42 679.97,233.03 678.51,233.23 C675.22,233.68 675.63,236.72 679.64,241.61 L 683.42 246.22 L 679.73 249.61 C675.49,253.49 674.38,253.76 673.53,251.10 C673.20,250.06 671.59,247.35 669.94,245.08 C667.45,241.64 666.64,241.12 665.09,241.95 C662.10,243.55 661.97,245.58 664.65,249.15 C666.02,250.99 667.78,253.70 668.56,255.16 C669.91,257.72 669.83,257.90 666.42,259.91 ZM 348.56 732.25 C347.92,735.20 345.64,735.73 341.20,733.95 C338.51,732.87 338.53,732.73 343.09,712.87 C344.69,705.93 346.00,699.90 346.00,699.48 C346.00,698.53 356.13,699.58 361.42,701.08 C370.08,703.53 373.84,711.43 370.37,719.87 C367.78,726.17 363.63,728.33 355.74,727.50 L 355.38 727.47 C352.47,727.16 351.06,727.01 350.23,727.63 C349.41,728.24 349.15,729.59 348.56,732.25 ZM 532.68 717.80 L 532.32 717.93 C530.35,718.64 529.34,719.01 528.60,718.71 C527.77,718.37 527.28,717.20 526.17,714.75 C525.11,712.41 521.94,705.44 519.12,699.26 C516.30,693.07 514.00,687.54 514.00,686.96 C514.00,686.07 519.78,683.00 521.45,683.00 C521.73,683.00 523.09,685.22 524.46,687.93 C525.84,690.64 527.39,693.12 527.92,693.45 C529.04,694.14 538.00,689.98 538.00,688.77 C538.00,688.31 536.84,685.65 535.43,682.87 C534.02,680.08 533.01,677.70 533.18,677.57 C534.78,676.42 540.09,674.94 540.87,675.42 C541.97,676.10 547.45,687.34 552.25,698.79 L 555.39 706.27 L 553.08 708.13 C549.03,711.41 547.14,710.57 544.35,704.25 C542.96,701.09 541.67,698.35 541.49,698.17 C540.87,697.53 532.00,701.89 532.00,702.83 C532.00,703.36 532.89,705.74 533.98,708.14 C536.86,714.49 536.61,716.38 532.68,717.80 ZM 229.90 184.01 C228.03,185.61 226.13,186.94 225.67,186.96 C225.22,186.98 223.64,185.74 222.17,184.20 C219.09,180.96 204.43,162.12 201.55,157.69 L 199.61 154.69 L 203.05 151.75 C207.37,148.07 220.10,139.00 220.95,139.00 C221.30,139.00 222.36,140.69 223.30,142.75 C223.47,143.12 223.63,143.46 223.78,143.75 C224.25,144.73 224.56,145.37 224.51,145.98 C224.41,147.28 222.68,148.46 217.44,152.67 L 213.50 155.84 L 219.33 161.95 L 224.17 158.48 C226.83,156.56 229.34,155.02 229.75,155.04 C230.16,155.07 231.48,156.63 232.69,158.52 L 234.88 161.95 L 225.59 169.89 L 229.45 175.49 L 233.31 181.10 ZM 434.93 740.41 C427.73,743.29 420.70,742.00 415.22,736.79 C408.07,729.99 406.72,719.44 412.06,712.07 C419.79,701.41 435.83,701.43 442.57,712.11 C443.99,714.36 444.86,716.47 444.51,716.82 C442.94,718.40 436.03,717.37 433.74,715.23 C430.09,711.79 423.50,712.62 420.33,716.91 C413.26,726.48 426.32,738.54 434.50,730.00 C436.74,727.67 438.24,727.00 441.30,727.00 C445.03,727.00 445.19,727.12 444.56,729.64 C443.48,733.90 439.19,738.71 434.93,740.41 ZM 283.85 706.99 C277.28,711.75 268.45,710.64 261.66,704.19 C256.18,698.99 254.71,692.98 256.99,685.05 C258.35,680.30 264.59,674.19 269.40,672.89 C277.51,670.71 287.85,674.94 291.46,681.93 C293.08,685.05 293.56,692.53 292.21,693.37 C290.54,694.40 284.86,690.59 283.61,687.60 C282.06,683.91 280.45,682.50 276.74,681.62 C270.76,680.19 263.88,687.39 265.41,693.48 C266.93,699.55 273.75,702.81 279.01,699.99 C280.39,699.26 281.86,699.44 284.45,700.68 C286.40,701.61 288.00,702.73 288.00,703.18 C288.00,703.62 286.13,705.34 283.85,706.99 ZM 321.70 725.04 C317.70,727.48 312.70,727.50 307.42,725.10 C297.80,720.73 296.86,714.81 303.12,698.04 C306.93,687.82 307.43,687.00 309.87,687.02 C316.00,687.05 316.07,688.21 310.85,704.29 C308.03,713.00 307.99,713.43 309.71,715.07 C312.45,717.70 315.57,718.29 317.34,716.52 C318.19,715.67 320.05,711.04 321.48,706.23 C325.48,692.73 325.53,692.66 329.25,693.40 C331.00,693.75 332.86,694.46 333.39,694.99 C333.99,695.59 333.12,699.91 331.04,706.72 C326.93,720.19 325.70,722.60 321.70,725.04 ZM 607.59 184.89 C604.89,188.25 602.41,190.97 602.09,190.94 C600.24,190.75 594.00,185.48 594.01,184.11 C594.02,183.23 598.00,178.23 602.85,173.00 C614.65,160.30 614.92,159.73 610.49,157.00 C607.51,155.15 607.10,154.45 607.64,152.17 C608.92,146.81 611.97,145.49 615.56,148.77 C616.63,149.74 620.88,153.28 625.00,156.64 C629.12,160.00 633.32,163.66 634.32,164.78 C636.09,166.76 636.06,166.90 633.17,170.14 L 630.20 173.46 L 626.43 170.78 C622.88,168.25 622.50,168.18 620.08,169.63 C618.66,170.48 616.38,172.88 615.00,174.98 C613.62,177.07 610.29,181.53 607.59,184.89 ZM 472.02 735.90 C463.38,737.75 459.52,738.20 458.75,737.42 C457.34,736.01 457.96,731.23 459.64,730.59 C460.95,730.08 461.16,729.04 460.70,725.23 C459.45,714.98 457.92,710.00 456.02,710.00 C454.05,710.00 453.00,708.11 453.00,704.56 C453.00,702.57 453.68,702.18 458.25,701.51 C461.14,701.09 465.08,700.69 467.00,700.62 C470.17,700.51 470.53,700.78 470.84,703.45 C471.06,705.40 470.58,706.84 469.43,707.68 C467.77,708.89 467.78,709.40 469.60,717.72 C471.16,724.83 471.90,726.55 473.51,726.85 C476.02,727.33 476.97,728.78 476.98,732.17 C477.00,734.56 476.49,734.94 472.02,735.90 ZM 503.54 727.80 L 503.30 727.91 C501.47,728.74 500.27,729.29 499.28,729.03 C497.36,728.50 496.29,724.86 493.01,714.12 L 489.85 703.75 L 485.45 704.35 C481.77,704.86 480.88,704.64 480.02,703.04 C477.88,699.04 478.75,697.14 483.25,695.98 C485.59,695.37 491.24,693.68 495.80,692.21 C504.89,689.30 505.95,689.60 505.98,695.11 C506.00,697.19 505.35,697.90 502.75,698.66 C498.81,699.81 498.79,700.45 502.49,712.50 C506.59,725.84 506.63,726.39 503.54,727.80 ZM 244.00 685.94 C244.00,686.46 242.99,688.01 241.75,689.38 L 239.50 691.86 L 231.59 686.48 C225.69,682.47 222.81,680.86 222.39,678.75 C222.03,676.95 223.47,674.78 226.36,670.45 C226.86,669.70 227.40,668.89 227.98,668.00 C240.98,648.20 240.99,648.20 245.78,651.56 C248.51,653.47 248.61,655.96 246.07,659.19 C242.56,663.64 234.00,676.34 234.00,677.08 C234.00,677.48 236.25,679.43 239.00,681.40 C241.75,683.38 244.00,685.42 244.00,685.94 ZM 570.05 317.72 C567.70,319.57 562.87,319.21 559.30,316.92 C556.76,315.29 555.97,313.96 555.44,310.44 C553.99,300.75 557.71,294.00 564.52,294.00 C569.42,294.00 571.90,295.52 573.58,299.55 C576.42,306.34 574.96,313.84 570.05,317.72 ZM 519.76 130.43 C527.32,134.54 535.00,128.84 535.00,119.14 C535.00,115.91 534.41,114.68 531.80,112.48 C527.35,108.74 520.85,109.37 516.78,113.92 C512.26,118.98 513.73,127.16 519.76,130.43 ZM 229.00 316.50 C229.00,318.96 228.87,319.00 221.00,319.00 L 213.00 319.00 L 213.00 294.00 L 220.50 294.00 C227.83,294.00 228.00,294.06 228.00,296.50 C228.00,298.80 227.63,299.00 223.50,299.00 C219.76,299.00 219.00,299.32 219.00,300.88 C219.00,303.03 222.26,304.22 225.72,303.36 C227.73,302.85 228.00,303.16 228.00,305.89 C228.00,308.91 227.87,309.00 223.50,309.00 C219.37,309.00 219.00,309.20 219.00,311.50 C219.00,313.83 219.33,314.00 224.00,314.00 C228.67,314.00 229.00,314.17 229.00,316.50 ZM 248.57 316.69 C243.70,320.88 233.00,318.99 233.00,313.94 C233.00,311.87 236.37,311.17 237.50,313.00 C238.51,314.63 244.71,314.20 245.38,312.44 C245.81,311.33 244.93,310.48 242.24,309.44 C234.45,306.41 233.52,305.63 233.20,301.83 C232.80,297.07 236.42,294.00 242.45,294.00 C248.34,294.00 253.63,299.05 249.43,300.66 C248.57,301.00 246.83,300.71 245.56,300.03 C244.30,299.36 242.42,298.97 241.38,299.17 C238.08,299.80 239.35,302.39 243.76,304.02 C246.10,304.88 248.75,306.32 249.63,307.21 C252.14,309.71 251.65,314.04 248.57,316.69 ZM 615.00 316.61 C615.00,318.49 614.47,319.00 612.50,319.00 C610.50,319.00 610.00,318.50 610.00,316.50 C610.00,314.11 609.73,314.00 604.00,314.00 C596.78,314.00 596.31,312.71 601.07,305.90 C602.76,303.48 605.06,300.04 606.17,298.25 C607.81,295.62 608.84,295.00 611.60,295.00 L 615.00 295.00 L 615.00 302.03 C615.00,307.36 615.36,309.20 616.50,309.64 C617.33,309.95 618.00,310.85 618.00,311.64 C618.00,312.42 617.33,313.32 616.50,313.64 C615.67,313.95 615.00,315.29 615.00,316.61 ZM 595.50 316.50 C595.50,318.31 594.74,318.53 587.33,318.79 C582.84,318.95 578.91,318.67 578.60,318.16 C578.29,317.66 579.04,315.87 580.27,314.18 C581.50,312.49 584.00,309.04 585.84,306.50 C590.78,299.66 589.52,297.95 581.39,300.50 C579.89,300.97 579.08,300.65 578.60,299.40 C577.56,296.70 580.29,294.77 585.95,294.23 C592.42,293.61 595.00,295.56 595.00,301.06 C595.00,303.91 594.13,305.85 591.36,309.16 L 587.72 313.50 L 591.61 314.00 C594.67,314.39 595.50,314.93 595.50,316.50 ZM 551.82 316.25 C551.52,318.35 550.94,318.52 543.33,318.79 C538.05,318.98 534.92,318.68 534.47,317.95 C534.08,317.32 535.31,315.19 537.23,313.16 C542.91,307.16 546.26,302.12 545.64,300.51 C544.91,298.61 540.12,298.52 539.40,300.39 C538.77,302.04 535.00,301.33 535.00,299.56 C535.00,298.89 536.04,297.37 537.31,296.17 C540.56,293.12 546.90,293.20 549.83,296.31 C553.47,300.19 552.51,304.59 546.68,310.75 L 543.61 314.00 L 547.87 314.00 C551.73,314.00 552.11,314.22 551.82,316.25 ZM 266.79 309.31 C266.53,317.69 266.32,318.53 264.46,318.79 C263.34,318.95 262.10,318.77 261.71,318.38 C261.32,317.99 261.00,313.43 261.00,308.26 L 261.00 298.85 L 257.75 299.17 C254.85,299.46 254.47,299.20 254.18,296.75 L 253.87 294.00 L 274.13 294.00 L 273.82 296.75 C273.55,299.03 272.96,299.55 270.29,299.81 L 267.07 300.12 ZM 291.34 128.79 C287.03,130.56 283.21,132.01 282.85,132.01 C282.49,132.00 281.29,130.45 280.17,128.56 L 278.14 125.13 L 287.57 121.39 C292.75,119.34 297.24,117.91 297.54,118.21 C297.84,118.51 298.33,120.28 298.64,122.15 L 299.19 125.56 ZM 397.50 719.50 L 398.12 727.00 L 391.81 726.86 C381.65,726.64 381.00,726.38 381.00,722.39 L 381.00 718.92 L 389.25 719.21 ZM 562.11 312.63 C563.94,314.83 567.31,313.86 568.83,310.69 C571.50,305.08 567.43,296.99 563.25,299.61 C561.09,300.97 560.26,310.40 562.11,312.63 ZM 321.10 107.85 C322.33,111.39 322.46,111.43 326.92,109.88 C332.96,107.77 333.56,99.99 327.68,100.01 C320.12,100.05 318.89,101.51 321.10,107.85 ZM 644.81 203.25 C646.70,205.45 649.80,205.49 652.17,203.35 C654.75,201.01 654.45,198.80 651.10,195.60 C648.66,193.26 647.87,193.00 646.12,193.93 C641.81,196.24 641.39,199.27 644.81,203.25 ZM 353.09 718.08 C355.11,719.36 359.40,719.20 360.80,717.80 C362.90,715.70 362.23,711.19 359.55,709.44 C355.69,706.91 353.63,707.92 352.59,712.85 C351.88,716.24 351.98,717.38 353.09,718.08 ZM 244.53 119.39 L 244.40 119.47 C242.91,120.45 242.14,120.96 241.66,120.76 C241.13,120.54 240.95,119.47 240.56,117.25 C240.19,115.19 239.68,112.77 239.42,111.87 C239.04,110.59 239.93,110.09 243.56,109.54 C246.10,109.16 248.40,109.06 248.66,109.32 C249.82,110.49 246.78,117.92 244.53,119.39 ZM 529.52 536.03 C529.85,536.56 531.01,537.00 532.09,537.00 C533.74,537.00 533.90,536.68 533.02,535.05 C531.25,531.72 536.87,526.58 548.41,520.96 C559.45,515.59 559.33,514.32 548.21,518.85 C537.69,523.13 527.40,532.59 529.52,536.03 ZM 186.70 197.50 C188.64,201.56 189.49,201.82 191.09,198.83 C192.05,197.03 191.94,196.43 190.44,195.33 C189.44,194.60 187.81,194.00 186.83,194.00 C185.13,194.00 185.12,194.18 186.70,197.50 ZM 605.75 309.42 C606.83,310.49 609.06,310.01 609.61,308.58 C609.90,307.81 610.00,305.89 609.82,304.33 L 609.50 301.50 L 607.33 305.17 C606.14,307.18 605.43,309.10 605.75,309.42 ZM 521.00 541.27 C522.92,541.49 525.62,541.72 527.00,541.76 C529.40,541.83 529.38,541.78 526.50,540.46 C523.08,538.90 515.06,538.47 516.55,539.93 C517.07,540.44 519.08,541.04 521.00,541.27 Z" fill="rgb(91,52,18)"/>
<path d="M 47.89 599.67 C44.45,593.15 40.91,585.96 38.50,580.50 C37.04,577.20 35.23,573.15 34.47,571.50 C31.46,564.91 28.09,556.08 25.50,548.00 C24.00,543.33 22.16,537.92 21.40,536.00 C20.65,534.08 19.60,530.70 19.08,528.50 C18.56,526.30 17.45,522.70 16.61,520.50 C15.77,518.30 15.07,514.92 15.04,513.00 C15.01,511.08 14.30,508.18 13.46,506.57 C12.62,504.96 11.47,500.46 10.91,496.57 C10.34,492.68 9.19,487.28 8.33,484.56 C7.48,481.85 6.56,476.00 6.29,471.56 C6.01,467.13 5.16,461.56 4.38,459.19 C0.95,448.63 0.65,373.54 4.03,369.47 C4.64,368.73 5.52,361.91 5.98,354.31 C6.50,345.77 7.38,339.36 8.30,337.50 C9.11,335.85 10.05,331.20 10.40,327.16 C10.75,323.13 11.92,317.86 13.02,315.47 C14.11,313.07 15.01,309.62 15.02,307.80 C15.03,305.99 15.93,302.54 17.02,300.14 C18.11,297.74 19.00,294.59 19.00,293.14 C19.01,291.69 19.83,289.15 20.84,287.50 C21.85,285.85 22.92,282.60 23.23,280.29 C23.54,277.98 24.74,274.77 25.90,273.14 C27.05,271.52 28.00,268.86 28.00,267.23 C28.00,265.60 28.90,263.13 30.00,261.73 C31.10,260.33 32.00,258.11 32.00,256.79 C32.00,255.47 33.12,252.86 34.50,251.00 C35.88,249.14 37.00,246.79 37.00,245.80 C37.00,244.80 37.90,243.21 39.00,242.27 C40.10,241.33 41.00,239.59 41.00,238.41 C41.00,237.23 41.83,235.20 42.85,233.88 C43.86,232.57 45.02,230.15 45.43,228.50 C45.83,226.85 46.88,224.69 47.77,223.71 C48.66,222.72 49.54,220.93 49.72,219.74 C49.90,218.55 50.94,216.63 52.03,215.47 C53.11,214.32 54.00,212.65 54.00,211.76 C54.00,210.88 55.12,208.82 56.50,207.18 C57.88,205.55 59.00,203.28 59.00,202.14 C59.00,201.00 59.90,199.59 61.00,199.00 C62.10,198.41 63.00,197.06 63.00,196.00 C63.00,194.94 63.80,193.27 64.78,192.29 C65.77,191.31 67.90,188.48 69.53,186.01 C71.17,183.53 74.19,179.73 76.25,177.55 C78.31,175.38 80.00,173.02 80.00,172.32 C80.00,171.62 81.12,170.31 82.50,169.41 C83.88,168.51 85.00,167.01 85.00,166.09 C85.00,165.16 86.75,162.59 88.88,160.36 C91.02,158.14 93.07,155.35 93.45,154.16 C93.83,152.97 95.00,151.53 96.07,150.96 C97.13,150.39 98.00,149.51 98.00,149.00 C98.00,147.90 99.32,146.36 110.24,134.66 C120.86,123.28 129.99,114.00 130.56,114.00 C130.95,114.00 134.15,111.11 144.69,101.25 C146.01,100.01 147.50,99.00 148.00,99.00 C148.49,99.00 149.26,98.37 149.70,97.59 C150.14,96.82 153.00,94.23 156.06,91.84 C162.25,87.01 162.82,86.53 168.50,81.52 C170.70,79.58 173.29,77.74 174.25,77.43 C175.21,77.12 176.00,76.47 176.00,75.98 C176.00,75.24 180.81,72.18 191.21,66.34 C192.34,65.70 193.55,64.80 193.89,64.34 C194.70,63.22 200.75,59.00 201.54,59.00 C201.87,59.00 205.23,57.20 209.00,55.00 C212.77,52.80 216.31,51.00 216.87,51.00 C217.44,51.00 219.85,49.68 222.24,48.07 C224.62,46.46 227.76,44.85 229.21,44.48 C230.67,44.12 232.63,42.96 233.58,41.91 C234.53,40.86 235.90,40.00 236.63,40.00 C237.36,40.00 240.77,38.48 244.22,36.63 C247.68,34.78 254.10,32.03 258.49,30.52 C262.88,29.01 267.37,27.15 268.46,26.39 C269.55,25.63 271.50,25.00 272.79,25.00 C274.08,25.00 276.11,24.46 277.32,23.80 C280.53,22.05 292.24,18.01 294.14,18.00 C295.04,18.00 297.74,17.11 300.14,16.02 C302.54,14.93 306.10,14.03 308.05,14.02 C310.00,14.01 312.08,13.52 312.66,12.94 C313.24,12.36 317.27,11.25 321.61,10.47 C325.95,9.68 334.00,8.14 339.50,7.04 C345.00,5.93 353.55,4.59 358.50,4.05 C406.72,-1.21 451.20,0.34 492.00,8.71 C496.12,9.56 501.52,10.61 504.00,11.04 C506.48,11.47 509.80,12.33 511.38,12.94 C512.01,13.18 512.92,13.48 513.94,13.78 C510.38,13.02 507.09,12.54 504.00,12.32 C499.07,11.97 495.86,11.23 494.65,10.15 C493.29,8.94 490.35,8.41 483.65,8.15 C477.25,7.91 473.98,7.35 472.78,6.28 C470.46,4.21 424.99,3.05 378.50,3.89 C356.31,4.28 351.67,4.66 352.49,5.98 C353.34,7.36 350.14,8.00 342.33,8.00 C336.25,8.00 334.31,8.39 332.19,10.06 C330.21,11.62 328.34,12.07 324.54,11.90 C319.09,11.66 314.67,12.66 315.47,13.94 C316.01,14.82 310.32,15.97 305.37,15.99 C303.65,16.00 301.73,16.63 301.09,17.39 C300.46,18.16 297.96,19.08 295.55,19.44 C293.14,19.80 290.62,20.75 289.96,21.55 C289.30,22.35 287.08,23.00 285.03,23.00 C282.58,23.00 280.69,23.68 279.50,25.00 C278.36,26.26 276.42,27.00 274.27,27.00 C272.39,27.00 270.18,27.67 269.36,28.50 C268.09,29.76 266.34,30.20 263.46,29.96 C263.17,29.93 261.76,30.83 260.33,31.96 C258.90,33.08 256.72,34.00 255.49,34.00 C254.25,34.00 252.69,34.66 252.02,35.47 C251.35,36.28 249.30,37.23 247.47,37.57 C245.64,37.92 243.91,38.78 243.64,39.50 C243.36,40.21 241.31,41.11 239.07,41.49 C236.83,41.87 235.00,42.60 235.00,43.12 C235.00,43.64 234.21,44.35 233.25,44.70 C232.29,45.05 230.43,46.16 229.12,47.17 C227.80,48.18 225.67,49.00 224.37,49.00 C223.06,49.00 222.00,49.45 222.00,50.00 C222.00,50.55 218.96,52.43 215.25,54.17 C211.54,55.91 208.27,57.65 208.00,58.04 C207.73,58.42 204.80,60.17 201.50,61.92 C198.20,63.67 194.15,66.19 192.50,67.52 C186.46,72.40 184.45,73.74 182.08,74.48 C179.57,75.27 179.36,75.41 174.74,79.22 C173.22,80.47 170.84,82.40 169.44,83.50 C168.05,84.60 165.88,86.40 164.63,87.50 C163.38,88.60 160.41,91.07 158.05,93.00 C155.68,94.93 153.00,97.18 152.10,98.00 C151.19,98.82 148.88,100.79 146.97,102.37 C138.28,109.55 132.38,114.78 129.20,118.13 C117.51,130.45 110.94,137.00 110.27,137.01 C109.84,137.01 108.60,138.44 107.50,140.18 C103.03,147.27 102.46,148.00 101.41,148.00 C100.81,148.00 99.81,149.12 99.18,150.50 C98.56,151.88 97.63,153.00 97.12,153.00 C96.61,153.00 95.73,154.35 95.15,156.00 C94.57,157.65 93.64,159.00 93.07,159.00 C92.49,159.00 91.41,160.46 90.65,162.25 C89.90,164.04 87.65,167.07 85.65,169.00 C83.65,170.93 82.02,173.07 82.01,173.78 C82.00,174.48 80.01,177.04 77.59,179.47 C75.16,181.89 72.89,184.77 72.55,185.85 C72.20,186.93 71.27,188.07 70.46,188.38 C69.66,188.68 69.00,189.56 69.00,190.31 C69.00,191.07 68.10,192.50 67.00,193.50 C65.90,194.50 65.00,196.03 65.00,196.92 C65.00,197.80 63.88,199.73 62.50,201.22 C61.12,202.70 60.00,204.76 60.00,205.80 C60.00,206.84 59.10,208.50 58.00,209.50 C56.90,210.50 56.00,212.36 56.00,213.65 C56.00,214.93 55.10,216.55 54.00,217.23 C52.90,217.92 52.00,219.55 52.00,220.85 C52.00,222.15 50.88,224.55 49.50,226.18 C48.10,227.85 47.00,230.42 47.00,232.04 C47.00,233.91 46.29,235.31 45.00,236.00 C43.85,236.62 43.00,238.09 43.00,239.48 C43.00,240.80 42.08,242.53 40.96,243.32 C39.83,244.11 38.68,246.04 38.39,247.62 C38.11,249.21 37.00,251.43 35.94,252.56 C34.86,253.71 34.00,256.04 34.00,257.81 C34.00,259.90 33.32,261.41 32.00,262.23 C30.53,263.15 30.00,264.56 30.00,267.60 C30.00,270.35 29.17,272.95 27.50,275.40 C25.92,277.74 25.00,280.48 25.00,282.89 C25.00,285.42 24.33,287.29 23.00,288.50 C21.52,289.84 21.00,291.58 21.00,295.15 C21.00,298.59 20.44,300.56 19.09,301.91 C17.80,303.20 16.95,305.97 16.47,310.46 C16.08,314.11 15.16,317.70 14.43,318.43 C13.69,319.16 13.37,320.04 13.71,320.38 C14.05,320.72 13.81,321.00 13.17,321.00 C12.38,321.00 12.00,323.54 12.00,328.85 C12.00,336.39 10.63,343.00 9.06,343.00 C8.65,343.00 8.02,349.83 7.66,358.18 C7.13,370.21 6.64,373.89 5.25,375.93 C3.68,378.23 3.47,382.17 3.17,413.79 C2.85,447.90 2.91,449.22 4.92,453.07 C6.43,455.96 7.17,459.84 7.65,467.27 C8.14,474.97 8.76,478.09 10.15,479.88 C11.66,481.83 12.00,484.06 12.00,491.91 C12.00,500.18 12.27,501.79 13.92,503.20 C15.92,504.91 17.82,514.86 16.54,516.93 C16.17,517.53 16.55,518.27 17.37,518.59 C19.20,519.29 21.00,524.20 21.00,528.51 C21.00,530.28 21.94,532.92 23.08,534.38 C24.52,536.21 25.17,538.48 25.17,541.73 C25.17,545.41 25.69,546.91 27.58,548.66 C29.40,550.35 30.00,551.95 30.00,555.09 C30.00,557.84 30.57,559.70 31.66,560.50 C32.58,561.17 33.59,563.69 33.91,566.11 C34.26,568.72 35.02,570.50 35.79,570.50 C37.80,570.50 38.79,572.91 38.29,576.61 C37.94,579.24 38.25,580.15 39.67,580.68 C42.24,581.63 42.97,582.99 42.98,586.92 C42.99,588.80 43.29,590.04 43.65,589.68 C44.77,588.57 46.93,592.35 46.98,595.50 C47.00,596.71 47.43,598.43 47.89,599.67 ZM 391.50 765.42 C388.66,765.20 385.83,764.96 383.03,764.69 C398.24,765.25 434.33,764.81 449.20,763.86 C448.80,763.89 448.40,763.93 448.00,763.97 C441.12,764.58 431.37,765.52 426.33,766.04 C415.61,767.16 413.94,767.13 391.50,765.42 ZM 93.52 668.37 C92.93,667.70 92.42,667.12 91.99,666.63 C87.19,661.17 83.74,656.59 80.50,651.38 C79.40,649.62 75.72,644.35 72.32,639.68 C68.93,635.00 65.41,629.90 64.50,628.34 C64.16,627.75 63.81,627.14 63.44,626.51 C64.84,628.37 66.25,629.95 66.75,629.96 C67.44,629.98 68.03,630.34 68.08,630.75 C68.39,633.82 69.23,635.38 72.10,638.24 C73.90,640.03 75.73,641.39 76.17,641.26 C76.61,641.12 77.25,642.14 77.60,643.53 C77.94,644.91 78.96,646.60 79.86,647.28 C81.59,648.58 84.17,652.64 86.22,657.25 C86.89,658.76 87.79,660.00 88.22,660.00 C88.65,660.00 89.00,660.65 89.00,661.44 C89.00,662.32 90.68,664.82 93.52,668.37 ZM 451.05 577.79 C451.10,578.69 451.39,579.90 451.93,581.32 L 452.86 583.76 L 443.68 583.90 C436.04,584.01 433.95,583.69 431.19,582.00 C431.09,581.94 430.99,581.87 430.90,581.80 C432.38,582.49 434.77,583.00 436.73,583.00 C440.15,583.00 441.67,582.38 444.21,579.95 L 447.41 576.89 L 450.96 581.50 L 450.98 578.75 C450.98,578.41 451.01,578.09 451.05,577.79 ZM 600.91 47.13 C611.57,52.61 621.51,58.11 624.33,60.37 C623.79,60.14 622.96,60.00 622.04,60.00 C620.09,60.00 618.70,59.31 618.00,58.00 C617.37,56.82 615.91,56.00 614.42,56.00 C611.71,56.00 606.00,52.30 606.00,50.54 C606.00,50.13 603.99,48.84 600.91,47.13 ZM 529.52 536.03 C528.30,534.06 531.18,530.09 535.84,526.27 C534.97,527.12 534.17,528.03 533.43,529.00 C531.86,531.07 532.39,530.88 536.52,527.87 C539.26,525.88 544.36,522.81 547.85,521.06 C555.58,517.18 555.30,516.03 547.56,519.12 C547.77,519.03 547.99,518.94 548.21,518.85 C559.33,514.32 559.45,515.59 548.41,520.96 C536.87,526.58 531.25,531.72 533.02,535.05 C533.90,536.68 533.74,537.00 532.09,537.00 C531.01,537.00 529.85,536.56 529.52,536.03 ZM 157.67 396.45 C157.21,411.65 157.55,429.19 158.70,440.80 C158.08,437.00 157.47,434.26 157.16,434.05 C156.33,433.48 156.78,413.83 157.67,396.45 ZM 60.00 620.68 C58.42,618.02 56.57,614.96 54.38,611.32 C52.74,608.61 50.76,605.08 48.72,601.23 C48.87,601.33 48.98,601.16 48.98,600.63 C48.99,600.15 49.70,600.33 50.55,601.04 C51.40,601.74 51.86,602.92 51.58,603.65 C51.30,604.38 52.24,606.07 53.68,607.40 C55.24,608.85 56.05,610.43 55.70,611.35 C55.37,612.19 56.21,614.50 57.55,616.48 C58.90,618.47 60.00,620.35 60.00,620.66 C60.00,620.67 60.00,620.68 60.00,620.68 ZM 184.29 751.43 C175.70,745.71 167.23,739.54 158.94,732.98 C167.14,739.37 173.86,744.00 175.27,744.00 C176.26,744.00 177.33,744.69 177.65,745.54 C178.10,746.69 180.49,748.76 184.29,751.43 ZM 704.82 125.08 C707.29,127.68 709.76,130.35 712.23,133.07 C709.77,130.69 708.04,129.43 707.37,129.69 C706.14,130.16 705.53,128.91 705.89,126.71 C705.93,126.51 705.54,125.94 704.82,125.08 ZM 656.03 81.95 C643.59,72.62 631.03,63.95 627.24,62.29 C631.18,63.75 643.11,72.06 656.03,81.95 ZM 134.11 711.62 C124.94,703.07 116.13,694.06 107.78,684.70 C115.96,693.58 125.61,703.49 134.11,711.62 ZM 241.13 782.82 C227.91,776.78 214.84,769.98 201.86,762.40 C200.59,761.67 199.33,760.92 198.07,760.16 C210.26,767.36 226.21,775.84 241.13,782.82 ZM 350.46 760.29 C324.78,755.75 300.36,748.77 276.06,739.09 C299.70,748.50 324.35,755.53 350.46,760.29 ZM 465.73 761.86 C490.21,758.11 514.28,751.67 537.50,742.74 C514.08,751.80 489.93,758.27 465.73,761.86 ZM 300.21 804.55 C324.08,811.19 349.27,815.92 374.50,818.40 C348.75,815.86 324.10,811.29 300.21,804.55 ZM 738.89 164.82 C748.27,176.94 756.37,188.59 761.85,198.17 C756.84,189.42 748.02,176.83 738.89,164.82 ZM 535.60 20.47 C537.99,21.25 540.33,21.94 543.00,22.67 C543.93,22.92 544.85,23.20 545.70,23.48 C545.24,23.34 544.76,23.22 544.27,23.10 C541.65,22.47 537.92,21.35 536.00,20.62 C535.86,20.57 535.73,20.52 535.60,20.47 ZM 174.34 318.11 C168.90,332.04 164.59,346.41 161.64,360.67 C164.52,346.55 168.85,332.13 174.34,318.11 ZM 625.00 61.00 C625.23,61.30 626.00,61.77 626.81,62.11 C626.59,62.04 626.42,62.00 626.30,62.00 C625.58,62.00 625.00,61.55 625.00,61.00 ZM 682.99 103.87 C684.40,105.11 685.74,106.31 687.00,107.46 C689.00,109.30 691.05,111.23 693.13,113.24 C689.94,110.21 686.44,106.97 682.99,103.87 ZM 520.83 15.50 C523.05,16.06 525.53,16.81 527.00,17.37 C527.18,17.44 527.36,17.51 527.54,17.58 C525.20,16.80 522.97,16.10 520.83,15.50 ZM 424.02 568.17 C424.04,570.35 424.83,573.14 425.98,575.64 C424.79,573.21 424.04,570.53 424.02,568.17 ZM 549.72 25.30 C550.30,25.70 551.24,26.00 551.99,26.00 C552.86,26.00 555.34,26.90 557.50,28.00 C555.34,26.90 552.80,26.00 551.85,26.00 C551.01,26.00 550.12,25.70 549.72,25.30 ZM 164.17 470.56 C165.33,475.26 166.62,479.93 168.03,484.54 C166.61,479.90 165.32,475.22 164.17,470.56 Z" fill="rgb(160,134,100)"/>
<path d="M 393.00 785.93 C303.78,781.83 214.29,742.98 150.13,680.52 C121.20,652.35 95.83,618.88 78.95,586.60 C46.40,524.39 31.97,458.79 35.85,390.68 C37.17,367.59 38.86,353.83 42.61,335.57 C61.44,243.91 113.37,162.41 188.00,107.38 C245.31,65.13 311.41,40.69 384.04,34.91 C401.77,33.50 436.49,34.25 455.00,36.45 C497.78,41.52 540.57,54.27 578.50,73.25 C615.76,91.89 646.93,114.67 678.00,145.96 C697.50,165.59 712.01,183.60 727.60,207.50 C737.12,222.08 753.71,254.69 760.84,272.82 C771.18,299.09 780.88,337.85 784.67,368.00 C787.07,387.08 787.06,435.35 784.65,453.46 C776.55,514.38 756.39,569.43 724.82,616.83 C719.94,624.16 714.07,632.71 711.78,635.83 C692.88,661.58 653.71,699.76 629.00,716.52 C625.42,718.95 620.70,722.21 618.50,723.76 C611.73,728.56 591.12,740.46 578.50,746.87 C535.13,768.90 483.85,782.73 433.39,785.99 C426.92,786.41 423.04,786.66 419.16,786.74 C413.35,786.86 407.54,786.59 393.03,785.93 L 393.03 785.93 ZM 455.00 771.53 C489.46,767.11 522.20,758.43 551.59,745.93 C584.41,731.97 623.53,707.37 651.00,683.42 C708.50,633.30 750.16,562.27 766.51,486.50 C772.42,459.12 775.71,423.14 774.54,398.50 C773.32,372.71 768.91,342.64 762.95,319.50 C747.07,257.82 715.77,202.00 671.50,156.39 C642.60,126.61 601.86,97.88 563.85,80.46 C528.96,64.48 494.16,54.40 456.50,49.37 C438.09,46.91 396.19,46.42 377.00,48.44 C341.13,52.22 307.63,60.22 277.77,72.15 C204.12,101.57 144.71,151.27 101.43,219.68 C93.86,231.65 78.59,262.54 72.17,278.90 C60.13,309.56 51.53,347.82 49.00,382.00 C44.10,448.24 57.19,515.53 86.25,573.50 C113.03,626.91 153.57,673.91 202.01,707.68 C242.97,736.23 290.39,756.60 338.88,766.47 C348.58,768.45 370.21,771.52 387.50,773.37 C396.49,774.34 443.01,773.06 455.00,771.53 ZM 350.46 760.29 C324.35,755.53 299.70,748.50 276.06,739.09 L 276.04 739.08 C237.01,723.54 189.60,692.03 160.15,662.07 C106.96,607.95 73.31,543.20 61.04,471.35 C51.51,415.55 55.38,357.15 72.16,303.50 C79.32,280.61 91.72,252.51 103.57,232.31 C110.60,220.31 124.92,199.46 132.72,189.84 C135.90,185.93 139.85,181.00 141.50,178.90 C146.77,172.20 177.13,142.77 187.75,134.08 C197.21,126.34 212.10,115.88 226.60,106.81 C237.81,99.79 267.55,85.09 281.50,79.67 C330.04,60.79 381.83,52.78 435.17,55.91 C518.02,60.77 596.69,95.89 659.34,155.98 C685.60,181.17 711.36,216.47 729.03,251.50 C758.35,309.61 771.86,381.12 765.45,444.24 C762.52,473.04 754.39,507.69 744.41,533.80 C731.15,568.53 713.89,599.46 691.56,628.50 C683.92,638.44 659.55,665.61 655.40,668.82 C654.21,669.74 648.79,674.35 643.37,679.06 C611.96,706.32 575.69,727.97 537.50,742.74 C514.28,751.67 490.21,758.11 465.73,761.86 L 465.73 761.86 C460.22,762.67 454.71,763.34 449.20,763.86 C434.33,764.81 398.24,765.25 383.03,764.69 C371.91,763.63 361.07,762.17 350.46,760.29 ZM 453.00 673.63 C461.52,672.23 472.80,669.95 478.06,668.57 C556.55,647.93 622.33,592.01 654.97,518.16 C664.96,495.56 670.35,476.67 674.69,449.00 C677.47,431.33 677.20,389.56 674.19,370.32 C667.09,324.91 649.18,282.07 623.68,249.50 C612.35,235.04 601.62,222.96 594.10,216.21 C569.20,193.88 554.24,183.62 527.50,170.57 C505.48,159.81 486.04,153.27 460.00,147.83 C444.56,144.60 444.39,144.59 414.50,144.54 C382.28,144.50 374.30,145.25 350.00,150.66 C326.64,155.85 296.46,167.94 273.50,181.31 C253.27,193.09 229.28,212.90 212.51,231.67 C199.57,246.16 193.62,254.21 180.41,275.14 C176.02,282.10 165.20,304.55 161.69,314.00 C148.80,348.65 144.62,372.27 144.59,410.50 C144.56,448.80 149.41,476.15 161.68,507.00 C177.69,547.23 200.99,580.49 233.52,609.51 C270.87,642.83 318.72,665.51 368.50,673.47 C387.16,676.46 393.47,676.87 415.50,676.53 C433.20,676.25 440.53,675.69 453.00,673.63 ZM 392.00 671.35 C344.04,666.86 301.25,651.94 264.50,626.89 C232.03,604.77 200.90,571.56 183.97,541.00 C172.79,520.83 165.23,503.39 159.69,485.00 C148.58,448.15 146.19,405.41 152.95,364.88 C155.49,349.67 156.47,345.48 160.56,332.29 C179.69,270.67 224.20,215.44 280.49,183.48 C311.86,165.67 343.07,155.33 379.00,150.83 C392.88,149.09 436.80,149.10 447.50,150.84 C478.45,155.89 502.95,163.77 529.09,177.11 C567.32,196.61 596.59,221.60 622.69,257.00 C639.72,280.11 651.20,303.38 660.88,334.42 C671.66,368.99 674.92,411.67 669.56,448.00 C660.35,510.33 628.35,569.11 582.50,607.86 C539.93,643.86 489.19,665.58 435.14,670.97 C425.65,671.91 400.40,672.14 392.00,671.35 ZM 454.10 663.60 C506.70,654.38 553.64,630.10 591.57,592.50 C606.72,577.48 609.78,573.96 618.99,561.00 C644.62,524.93 660.06,485.31 666.14,440.00 C669.00,418.73 667.24,383.95 662.02,358.61 C650.85,304.33 621.83,253.76 581.42,218.15 C533.67,176.07 475.60,153.68 414.50,153.80 C345.23,153.93 287.55,175.60 238.16,220.05 C194.20,259.62 165.89,312.53 156.32,373.00 C153.77,389.13 153.77,430.52 156.32,447.00 C160.80,475.98 169.78,503.36 183.15,528.87 C209.11,578.40 246.08,615.04 294.31,639.03 C318.33,650.98 335.54,656.93 362.20,662.48 C380.04,666.19 389.67,666.91 416.00,666.51 C435.64,666.22 441.90,665.74 454.10,663.60 ZM 387.00 663.42 C385.62,663.19 380.45,662.50 375.50,661.89 C354.27,659.25 323.84,649.93 300.00,638.77 C247.31,614.09 201.72,566.40 177.59,510.70 C174.02,502.47 170.79,493.58 168.03,484.54 C166.62,479.93 165.33,475.26 164.17,470.56 C162.10,462.18 160.50,453.88 159.47,446.05 C159.22,444.18 158.96,442.40 158.70,440.80 C157.55,429.19 157.21,411.65 157.67,396.45 C158.18,386.63 158.84,377.53 159.49,373.01 C160.08,368.93 160.80,364.81 161.64,360.66 C164.59,346.41 168.90,332.04 174.33,318.11 L 174.34 318.11 C182.82,296.43 194.08,275.68 207.07,258.40 C216.29,246.14 239.98,221.77 252.40,211.77 C297.48,175.48 352.75,156.58 413.50,156.68 C453.29,156.74 486.95,164.66 522.00,182.20 C542.22,192.33 542.70,192.60 554.17,200.31 C573.42,213.25 598.65,237.36 613.20,256.71 C622.50,269.08 633.47,287.47 640.81,303.00 C647.57,317.31 656.24,343.12 658.95,357.00 C661.92,372.21 664.99,399.92 665.00,411.50 C665.00,423.97 661.80,452.39 658.96,465.00 C648.52,511.46 626.36,553.03 594.52,585.87 C555.60,626.01 507.71,651.37 452.33,661.16 C442.84,662.84 435.46,663.31 415.00,663.54 C400.98,663.70 388.38,663.65 387.00,663.42 ZM 491.24 601.36 C494.69,599.60 496.55,596.76 498.12,590.86 C500.05,583.62 497.70,578.75 487.90,569.65 C480.41,562.69 480.01,562.11 480.97,559.57 C485.21,548.43 476.71,537.00 464.20,537.00 C453.30,537.00 438.72,544.62 431.39,554.15 C428.91,557.37 426.30,560.00 425.58,560.00 C422.51,560.00 399.69,554.87 390.47,552.11 C358.37,542.51 338.18,531.90 318.26,514.15 C300.54,498.38 287.62,479.87 279.09,458.03 C274.39,445.99 272.28,439.00 273.35,439.00 C273.63,439.00 274.94,441.36 276.28,444.25 C283.58,460.08 297.31,479.29 309.77,491.10 C334.65,514.67 361.26,528.28 392.50,533.40 C407.92,535.93 414.90,535.67 432.11,531.93 C461.79,525.48 484.38,511.10 507.45,484.00 C520.83,468.27 535.95,438.94 544.06,412.97 C545.85,407.21 547.76,401.94 548.28,401.25 C549.73,399.37 556.58,399.75 560.88,401.94 C566.01,404.55 570.75,410.16 571.58,414.57 C572.74,420.74 571.46,430.16 568.74,435.52 C564.18,444.53 552.19,453.86 540.00,457.88 C537.24,458.79 535.71,460.39 532.77,465.41 C530.73,468.91 527.48,473.84 525.56,476.35 C523.64,478.87 522.39,481.11 522.79,481.34 C524.48,482.32 541.34,477.93 550.38,474.15 C567.23,467.11 580.82,456.71 588.74,444.81 C592.58,439.02 596.97,425.28 596.99,418.98 C597.00,412.11 594.18,401.69 590.70,395.74 C587.89,390.96 579.47,382.81 574.86,380.43 C571.01,378.44 560.33,376.03 555.27,376.01 C551.49,376.00 550.97,375.71 550.38,373.25 C547.42,360.96 535.31,351.48 510.28,341.88 C485.59,332.40 453.51,326.07 421.54,324.37 L 409.29 323.71 L 406.28 328.11 C402.43,333.74 399.00,340.49 399.00,342.46 C399.00,343.74 400.64,344.00 408.75,344.01 C419.52,344.01 448.12,346.35 457.50,348.00 C496.03,354.76 518.00,365.18 518.00,376.70 C518.00,382.06 510.17,389.36 499.65,393.80 C473.54,404.82 437.23,410.34 390.50,410.38 C355.10,410.40 325.91,407.46 302.00,401.46 C263.57,391.80 249.28,379.24 262.63,366.83 C265.94,363.75 277.22,357.99 284.50,355.65 C298.46,351.17 327.74,345.86 344.50,344.76 C347.02,344.60 348.41,344.05 348.26,343.27 C348.12,342.60 347.72,338.16 347.35,333.41 L 346.69 324.77 L 339.59 325.44 C303.75,328.80 271.08,337.46 247.60,349.81 C231.36,358.35 224.00,367.50 224.00,379.15 C224.00,394.51 233.33,435.26 241.44,455.32 C255.30,489.59 271.39,512.62 294.51,531.28 C315.20,547.97 346.43,560.70 377.50,565.08 C387.31,566.47 406.62,566.70 417.27,565.56 L 424.00 564.84 L 424.02 568.17 C424.04,570.35 424.83,573.14 425.98,575.64 C427.13,578.13 428.65,580.34 430.11,581.37 C430.33,581.52 430.59,581.67 430.90,581.80 C430.99,581.87 431.09,581.94 431.19,582.00 C433.95,583.69 436.04,584.01 443.68,583.90 L 452.86 583.76 L 451.93 581.32 C451.39,579.90 451.10,578.69 451.05,577.79 C451.20,576.75 451.57,576.00 452.00,576.00 C452.55,576.00 453.00,576.85 453.00,577.90 C453.00,578.94 454.63,582.21 456.63,585.15 C458.63,588.09 460.57,591.62 460.94,593.00 C462.19,597.62 478.78,604.59 485.50,603.32 C487.15,603.01 489.73,602.13 491.24,601.36 ZM 547.31 594.41 C556.47,591.29 564.19,576.72 561.21,568.18 L 560.19 565.23 L 564.93 564.60 C587.73,561.58 603.02,550.21 602.99,536.29 C602.98,530.02 599.31,522.23 594.52,518.28 C589.22,513.91 583.28,512.49 570.50,512.55 C554.49,512.62 544.27,516.02 535.32,524.27 C530.61,528.61 528.00,532.69 528.00,535.70 C528.00,537.34 526.90,537.50 516.25,537.50 C505.58,537.50 504.15,537.72 500.63,539.91 C492.01,545.26 489.04,554.82 492.66,565.57 C496.94,578.32 523.24,595.72 538.57,595.94 C540.81,595.97 544.74,595.28 547.31,594.41 ZM 363.26 350.75 C364.20,330.95 369.08,320.02 388.70,293.82 C405.11,271.89 412.54,258.48 416.74,243.21 C418.95,235.14 419.41,231.39 419.44,221.00 C419.48,205.70 418.03,199.72 410.53,184.26 C405.26,173.39 399.23,163.41 400.39,167.50 C405.37,184.97 406.36,190.91 406.34,203.50 C406.32,213.76 405.86,218.15 404.14,224.35 C400.32,238.06 393.29,251.13 379.67,269.83 C358.11,299.43 354.47,308.09 354.55,329.50 C354.59,341.54 354.84,343.22 357.92,352.25 C359.75,357.61 361.58,362.00 361.99,362.00 C362.39,362.00 362.96,356.94 363.26,350.75 ZM 387.52 353.29 C388.42,350.18 390.97,344.03 393.18,339.63 C399.08,327.92 404.86,320.41 422.55,301.50 C442.38,280.31 448.36,270.81 451.46,255.64 C452.78,249.17 452.87,246.36 451.98,239.82 C451.38,235.45 450.64,231.22 450.34,230.43 C449.14,227.33 448.00,229.27 448.00,234.39 C448.00,244.56 441.73,260.29 433.31,271.24 C430.89,274.39 422.73,283.39 415.19,291.24 C384.12,323.54 376.21,337.57 378.90,355.66 C379.83,361.91 381.73,369.15 383.73,374.00 C384.07,374.83 384.69,371.78 385.11,367.23 C385.53,362.68 386.61,356.41 387.52,353.29 ZM 533.77 140.45 C541.79,137.10 545.94,130.31 545.98,120.46 C546.02,108.33 538.30,100.08 526.06,99.20 C507.70,97.87 496.04,120.20 507.80,134.17 C513.48,140.93 525.61,143.86 533.77,140.45 ZM 323.37 134.34 L 327.24 133.70 L 326.63 129.10 C326.29,126.57 325.89,123.60 325.75,122.50 C325.56,120.95 326.17,120.42 328.45,120.16 C330.92,119.88 332.08,120.61 335.53,124.59 L 339.66 129.35 L 345.02 127.86 C347.97,127.04 350.54,125.89 350.73,125.31 C350.93,124.72 348.59,121.86 345.54,118.95 C340.23,113.88 340.06,113.56 341.50,111.36 C343.39,108.48 343.44,100.75 341.60,97.20 C339.51,93.17 334.62,90.00 330.52,90.00 C327.09,90.00 315.29,92.80 309.61,94.96 C307.67,95.70 307.02,96.51 307.38,97.75 C307.67,98.71 308.85,103.32 310.01,108.00 C311.17,112.68 312.95,119.43 313.96,123.00 C314.97,126.57 316.07,130.74 316.42,132.25 C317.08,135.20 317.46,135.32 323.37,134.34 ZM 644.52 224.16 C646.27,218.03 648.07,216.00 651.74,216.00 C659.12,216.00 664.81,207.85 664.16,198.19 C664.07,196.92 661.83,193.54 659.18,190.69 C656.53,187.84 653.34,184.04 652.11,182.25 C650.87,180.46 649.27,179.00 648.55,179.00 C646.45,179.00 618.00,203.74 618.00,205.57 C618.00,205.77 619.37,207.49 621.05,209.40 L 624.10 212.88 L 627.56 210.83 C629.46,209.71 631.39,208.12 631.86,207.29 C633.10,205.08 636.44,206.13 636.83,208.86 C637.01,210.14 636.21,213.41 635.04,216.13 C632.78,221.39 632.81,221.53 637.21,227.20 C638.94,229.42 640.65,230.69 641.50,230.36 C642.28,230.06 643.64,227.27 644.52,224.16 ZM 582.18 164.83 C584.01,161.71 588.54,154.22 592.25,148.19 C595.96,142.15 599.00,136.72 599.00,136.13 C599.00,134.75 591.24,130.73 590.03,131.48 C589.53,131.79 586.99,135.42 584.37,139.55 L 584.36 139.56 C581.82,143.58 580.44,145.75 579.42,145.59 C578.22,145.42 577.49,142.06 575.91,134.77 C571.51,114.42 571.01,114.06 563.60,125.76 C560.90,130.02 556.80,136.44 554.49,140.02 C552.18,143.61 549.56,147.96 548.66,149.69 L 547.04 152.83 L 551.45 155.42 C553.87,156.84 556.30,158.00 556.84,158.00 C557.37,158.00 559.58,154.58 561.73,150.41 C563.88,146.23 566.04,142.75 566.53,142.66 C567.01,142.57 568.84,148.54 570.59,155.93 C572.75,165.03 574.36,169.79 575.59,170.69 C577.74,172.26 577.93,172.09 582.18,164.83 ZM 437.78 105.25 C437.93,96.59 438.32,87.14 438.64,84.25 L 439.23 79.00 L 427.00 79.00 L 426.88 87.75 C426.82,92.56 426.82,96.84 426.88,97.25 C427.24,99.50 424.23,96.98 415.84,88.00 C408.01,79.63 406.14,78.11 404.25,78.62 C402.06,79.22 402.00,79.58 401.99,92.87 C401.99,100.36 401.70,109.54 401.35,113.25 L 400.71 120.00 L 413.13 120.00 L 412.89 116.25 C412.44,109.30 412.99,101.00 413.90,101.00 C414.40,101.00 418.49,105.16 422.99,110.25 C428.09,116.01 432.18,119.74 433.84,120.13 C435.30,120.48 436.73,120.82 437.00,120.88 C437.27,120.95 437.62,113.91 437.78,105.25 ZM 115.16 440.71 C126.40,432.14 130.22,410.14 122.94,395.89 C120.42,390.95 114.67,385.21 111.43,384.39 C108.24,383.59 106.84,385.37 104.07,393.77 C101.21,402.43 101.38,411.26 104.63,423.00 C106.07,428.23 107.31,435.09 107.38,438.25 C107.53,445.20 108.76,445.59 115.16,440.71 ZM 718.16 437.06 C719.35,434.00 720.52,428.50 720.77,424.82 C721.16,419.07 720.71,416.66 717.55,407.32 C714.98,399.74 713.96,395.09 714.13,391.77 C714.27,389.17 714.12,386.78 713.80,386.46 C712.60,385.26 706.17,388.92 703.63,392.24 C694.44,404.29 694.23,428.12 703.21,439.54 C704.38,441.03 707.18,443.08 709.42,444.10 C714.27,446.29 714.71,445.94 718.16,437.06 ZM 164.68 253.15 C170.78,250.02 174.90,244.50 176.43,237.39 C177.34,233.13 175.30,225.63 172.50,223.00 L 170.20 220.84 L 167.18 225.24 C165.07,228.30 164.43,230.07 165.06,231.07 C167.02,234.16 166.08,238.69 162.81,241.88 C157.92,246.66 151.00,245.63 146.09,239.39 C143.76,236.42 143.33,230.42 145.28,227.95 C147.40,225.26 151.36,223.00 153.97,222.98 C155.77,222.96 157.32,221.81 159.31,218.98 C160.86,216.80 161.85,214.57 161.53,214.04 C160.47,212.33 153.93,211.71 149.84,212.93 C145.27,214.30 138.59,219.96 136.28,224.42 C131.91,232.86 132.90,241.33 139.09,248.36 C145.72,255.90 155.69,257.76 164.68,253.15 ZM 193.85 214.32 C193.65,210.51 194.08,209.66 198.30,205.44 C202.19,201.54 203.39,200.88 205.54,201.42 C207.53,201.92 209.04,201.34 212.11,198.91 C214.40,197.10 215.97,195.07 215.79,194.14 C215.57,193.03 210.61,190.85 199.99,187.21 C175.16,178.70 173.32,178.25 171.42,180.15 C169.95,181.62 170.03,182.35 172.40,188.92 C173.83,192.87 177.75,202.63 181.12,210.62 L 187.25 225.15 L 190.66 221.85 C193.59,219.00 194.04,217.95 193.85,214.32 ZM 484.29 124.27 C486.06,123.24 488.53,120.53 489.80,118.25 L 492.09 114.11 L 488.30 113.47 C486.21,113.11 483.79,112.64 482.93,112.40 C482.07,112.17 480.31,113.11 479.01,114.49 C476.29,117.39 472.34,117.74 467.98,115.49 C464.25,113.56 463.00,111.17 463.00,105.97 C463.00,98.59 467.29,94.00 474.20,94.00 C476.54,94.00 478.21,94.98 480.96,97.96 C483.68,100.91 485.68,102.09 488.81,102.59 L 493.00 103.26 L 493.00 99.78 C493.00,91.21 481.85,83.22 471.40,84.30 C468.55,84.59 464.91,85.51 463.30,86.34 C459.58,88.27 454.07,93.81 452.90,96.82 C451.50,100.42 451.82,112.76 453.40,115.80 C458.40,125.39 474.69,129.86 484.29,124.27 ZM 104.09 441.26 C105.37,437.91 104.71,433.90 101.20,423.50 C99.07,417.17 98.52,413.73 98.58,407.00 C98.64,399.41 99.03,397.67 102.27,390.75 C106.26,382.21 106.15,382.00 98.68,384.07 C86.05,387.58 77.86,407.54 82.46,423.57 C84.80,431.74 88.21,437.24 93.18,440.90 C98.61,444.90 102.66,445.03 104.09,441.26 ZM 727.60 443.71 C742.21,436.14 745.68,408.83 733.90,394.19 C728.13,387.03 718.86,383.65 717.63,388.25 C716.43,392.71 717.06,396.23 720.66,405.29 C723.75,413.07 724.34,415.75 724.41,422.56 C724.49,429.93 724.18,431.26 720.83,438.03 C718.80,442.10 717.34,445.74 717.57,446.11 C718.14,447.04 723.80,445.68 727.60,443.71 ZM 376.52 122.43 C383.09,121.57 388.62,120.71 388.81,120.53 C389.00,120.34 388.84,118.11 388.46,115.57 L 387.77 110.96 L 382.63 111.69 C372.67,113.10 371.54,112.87 371.20,109.39 C370.93,106.60 371.23,106.20 374.07,105.64 C375.82,105.29 379.27,105.00 381.73,105.00 C385.60,105.00 386.12,104.76 385.52,103.25 C385.14,102.29 384.59,100.05 384.29,98.27 L 383.75 95.05 L 376.28 95.68 C368.83,96.31 368.82,96.31 369.16,93.90 C369.46,91.77 370.26,91.38 376.28,90.39 C380.01,89.78 383.31,89.02 383.63,88.71 C383.94,88.39 383.89,86.30 383.51,84.07 C382.91,80.50 382.50,80.00 380.16,80.00 C376.12,80.01 358.60,82.99 357.89,83.79 C357.30,84.46 360.41,116.86 361.52,121.75 C361.68,122.44 361.76,122.94 362.04,123.29 C362.81,124.24 365.12,123.93 374.91,122.65 C375.43,122.58 375.96,122.51 376.52,122.43 ZM 264.85 159.68 C269.61,156.75 274.32,154.05 275.32,153.68 C277.31,152.94 276.98,150.39 274.35,146.21 L 272.90 143.92 L 266.20 147.48 C260.02,150.76 259.40,150.90 258.25,149.33 C256.13,146.43 256.81,145.26 262.50,142.00 C265.52,140.27 268.00,138.65 268.00,138.41 C268.00,138.16 266.83,136.19 265.40,134.02 L 262.79 130.09 L 257.77 133.47 C252.45,137.05 251.19,137.13 249.23,133.99 C248.11,132.20 248.51,131.77 253.93,129.04 C257.19,127.39 260.10,125.64 260.41,125.14 C261.15,123.95 258.14,117.99 256.48,117.36 C255.41,116.95 249.84,119.92 235.01,128.81 C233.79,129.54 234.85,131.91 240.95,142.10 C248.36,154.47 255.19,164.97 255.85,164.99 C256.04,164.99 260.09,162.61 264.85,159.68 ZM 574.63 696.92 C576.48,695.77 578.00,694.43 578.00,693.93 C578.00,693.44 576.65,690.84 575.00,688.15 C571.36,682.23 571.17,680.53 574.25,681.41 C580.96,683.32 581.70,683.27 582.34,680.85 C582.69,679.56 582.98,677.51 582.99,676.31 C583.01,672.29 584.71,672.99 588.38,678.52 C590.38,681.53 592.58,684.00 593.26,684.00 C593.94,683.99 596.00,683.08 597.82,681.97 L 601.15 679.94 L 599.32 677.04 C598.59,675.89 597.90,674.78 597.23,673.72 L 597.22 673.71 C583.75,652.32 582.31,650.05 580.92,650.07 C580.69,650.08 580.46,650.15 580.17,650.21 C578.37,650.55 576.13,659.99 576.05,667.58 C575.99,672.67 575.42,673.25 572.12,671.61 C568.33,669.73 555.12,666.74 553.43,667.39 C551.23,668.23 551.58,669.13 557.77,678.64 C560.94,683.51 565.09,690.09 566.98,693.25 C568.87,696.41 570.61,699.00 570.84,699.00 C571.07,699.00 572.78,698.06 574.63,696.92 ZM 666.42 259.91 C669.83,257.90 669.91,257.72 668.56,255.16 C667.78,253.70 666.02,250.99 664.65,249.15 C661.97,245.58 662.10,243.55 665.09,241.95 C666.64,241.12 667.45,241.64 669.94,245.08 C671.59,247.35 673.20,250.06 673.53,251.10 C674.38,253.76 675.49,253.49 679.73,249.61 L 683.42 246.22 L 679.64 241.61 C675.63,236.72 675.22,233.68 678.51,233.23 C679.97,233.03 681.43,234.42 684.00,238.47 C685.92,241.51 687.98,243.99 688.56,243.99 C689.15,244.00 690.88,242.69 692.41,241.10 L 695.19 238.20 L 691.34 232.47 C689.23,229.31 686.45,225.00 685.18,222.87 C683.90,220.74 682.32,219.00 681.68,219.00 C681.03,219.01 673.53,223.62 665.00,229.25 C653.75,236.69 649.41,240.11 649.19,241.71 C648.88,243.86 660.47,262.00 662.14,262.00 C662.55,262.00 664.48,261.06 666.42,259.91 ZM 348.56 732.25 C349.15,729.59 349.41,728.24 350.23,727.63 C351.06,727.01 352.47,727.16 355.38,727.47 L 355.74 727.50 C363.63,728.33 367.78,726.17 370.37,719.87 C373.84,711.43 370.08,703.53 361.42,701.08 C356.13,699.58 346.00,698.53 346.00,699.48 C346.00,699.90 344.69,705.93 343.09,712.87 C338.53,732.73 338.51,732.87 341.20,733.95 C345.64,735.73 347.92,735.20 348.56,732.25 ZM 532.68 717.80 C536.61,716.38 536.86,714.49 533.98,708.14 C532.89,705.74 532.00,703.36 532.00,702.83 C532.00,701.89 540.87,697.53 541.49,698.17 C541.67,698.35 542.96,701.09 544.35,704.25 C547.14,710.57 549.03,711.41 553.08,708.13 L 555.39 706.27 L 552.25 698.79 C547.45,687.34 541.97,676.10 540.87,675.42 C540.09,674.94 534.78,676.42 533.18,677.57 C533.01,677.70 534.02,680.08 535.43,682.87 C536.84,685.65 538.00,688.31 538.00,688.77 C538.00,689.98 529.04,694.14 527.92,693.45 C527.39,693.12 525.84,690.64 524.46,687.93 C523.09,685.22 521.73,683.00 521.45,683.00 C519.78,683.00 514.00,686.07 514.00,686.96 C514.00,687.54 516.30,693.07 519.12,699.26 C521.94,705.44 525.11,712.41 526.17,714.75 C527.28,717.20 527.77,718.37 528.60,718.71 C529.34,719.01 530.35,718.64 532.32,717.93 ZM 229.90 184.01 L 233.31 181.10 L 229.45 175.49 L 225.59 169.89 L 234.88 161.95 L 232.69 158.52 C231.48,156.63 230.16,155.07 229.75,155.04 C229.34,155.02 226.83,156.56 224.17,158.48 L 219.33 161.95 L 213.50 155.84 L 217.44 152.67 C222.68,148.46 224.41,147.28 224.51,145.98 C224.56,145.37 224.25,144.73 223.78,143.75 C223.63,143.46 223.47,143.12 223.30,142.75 C222.36,140.69 221.30,139.00 220.95,139.00 C220.10,139.00 207.37,148.07 203.05,151.75 L 199.61 154.69 L 201.55 157.69 C204.43,162.12 219.09,180.96 222.17,184.20 C223.64,185.74 225.22,186.98 225.67,186.96 C226.13,186.94 228.03,185.61 229.90,184.01 ZM 434.93 740.41 C439.19,738.71 443.48,733.90 444.56,729.64 C445.19,727.12 445.03,727.00 441.30,727.00 C438.24,727.00 436.74,727.67 434.50,730.00 C426.32,738.54 413.26,726.48 420.33,716.91 C423.50,712.62 430.09,711.79 433.74,715.23 C436.03,717.37 442.94,718.40 444.51,716.82 C444.86,716.47 443.99,714.36 442.57,712.11 C435.83,701.43 419.79,701.41 412.06,712.07 C406.72,719.44 408.07,729.99 415.22,736.79 C420.70,742.00 427.73,743.29 434.93,740.41 ZM 283.85 706.99 C286.13,705.34 288.00,703.62 288.00,703.18 C288.00,702.73 286.40,701.61 284.45,700.68 C281.86,699.44 280.39,699.26 279.01,699.99 C273.75,702.81 266.93,699.55 265.41,693.48 C263.88,687.39 270.76,680.19 276.74,681.62 C280.45,682.50 282.06,683.91 283.61,687.60 C284.86,690.59 290.54,694.40 292.21,693.37 C293.56,692.53 293.08,685.05 291.46,681.93 C287.85,674.94 277.51,670.71 269.40,672.89 C264.59,674.19 258.35,680.30 256.99,685.05 C254.71,692.98 256.18,698.99 261.66,704.19 C268.45,710.64 277.28,711.75 283.85,706.99 ZM 321.70 725.04 C325.70,722.60 326.93,720.19 331.04,706.72 C333.12,699.91 333.99,695.59 333.39,694.99 C332.86,694.46 331.00,693.75 329.25,693.40 C325.53,692.66 325.48,692.73 321.48,706.23 C320.05,711.04 318.19,715.67 317.34,716.52 C315.57,718.29 312.45,717.70 309.71,715.07 C307.99,713.43 308.03,713.00 310.85,704.29 C316.07,688.21 316.00,687.05 309.87,687.02 C307.43,687.00 306.93,687.82 303.12,698.04 C296.86,714.81 297.80,720.73 307.42,725.10 C312.70,727.50 317.70,727.48 321.70,725.04 ZM 607.59 184.89 C610.29,181.53 613.62,177.07 615.00,174.98 C616.38,172.88 618.66,170.48 620.08,169.63 C622.50,168.18 622.88,168.25 626.43,170.78 L 630.20 173.46 L 633.17 170.14 C636.06,166.90 636.09,166.76 634.32,164.78 C633.32,163.66 629.12,160.00 625.00,156.64 C620.88,153.28 616.63,149.74 615.56,148.77 C611.97,145.49 608.92,146.81 607.64,152.17 C607.10,154.45 607.51,155.15 610.49,157.00 C614.92,159.73 614.65,160.30 602.85,173.00 C598.00,178.23 594.02,183.23 594.01,184.11 C594.00,185.48 600.24,190.75 602.09,190.94 C602.41,190.97 604.89,188.25 607.59,184.89 ZM 472.02 735.90 C476.49,734.94 477.00,734.56 476.98,732.17 C476.97,728.78 476.02,727.33 473.51,726.85 C471.90,726.55 471.16,724.83 469.60,717.72 C467.78,709.40 467.77,708.89 469.43,707.68 C470.58,706.84 471.06,705.40 470.84,703.45 C470.53,700.78 470.17,700.51 467.00,700.62 C465.08,700.69 461.14,701.09 458.25,701.51 C453.68,702.18 453.00,702.57 453.00,704.56 C453.00,708.11 454.05,710.00 456.02,710.00 C457.92,710.00 459.45,714.98 460.70,725.23 C461.16,729.04 460.95,730.08 459.64,730.59 C457.96,731.23 457.34,736.01 458.75,737.42 C459.52,738.20 463.38,737.75 472.02,735.90 ZM 503.54 727.80 C506.63,726.39 506.59,725.84 502.49,712.50 C498.79,700.45 498.81,699.81 502.75,698.66 C505.35,697.90 506.00,697.19 505.98,695.11 C505.95,689.60 504.89,689.30 495.80,692.21 C491.24,693.68 485.59,695.37 483.25,695.98 C478.75,697.14 477.88,699.04 480.02,703.04 C480.88,704.64 481.77,704.86 485.45,704.35 L 489.85 703.75 L 493.01 714.12 C496.29,724.86 497.36,728.50 499.28,729.03 C500.27,729.29 501.47,728.74 503.30,727.91 ZM 244.00 685.94 C244.00,685.42 241.75,683.38 239.00,681.40 C236.25,679.43 234.00,677.48 234.00,677.08 C234.00,676.34 242.56,663.64 246.07,659.19 C248.61,655.96 248.51,653.47 245.78,651.56 C240.99,648.20 240.98,648.20 227.98,668.00 C227.40,668.89 226.86,669.70 226.36,670.45 C223.47,674.78 222.03,676.95 222.39,678.75 C222.81,680.86 225.69,682.47 231.59,686.48 L 239.50 691.86 L 241.75 689.38 C242.99,688.01 244.00,686.46 244.00,685.94 ZM 570.05 317.72 C574.96,313.84 576.42,306.34 573.58,299.55 C571.90,295.52 569.42,294.00 564.52,294.00 C557.71,294.00 553.99,300.75 555.44,310.44 C555.97,313.96 556.76,315.29 559.30,316.92 C562.87,319.21 567.70,319.57 570.05,317.72 ZM 519.76 130.43 C513.73,127.16 512.26,118.98 516.78,113.92 C520.85,109.37 527.35,108.74 531.80,112.48 C534.41,114.68 535.00,115.91 535.00,119.14 C535.00,128.84 527.32,134.54 519.76,130.43 ZM 229.00 316.50 C229.00,314.17 228.67,314.00 224.00,314.00 C219.33,314.00 219.00,313.83 219.00,311.50 C219.00,309.20 219.37,309.00 223.50,309.00 C227.87,309.00 228.00,308.91 228.00,305.89 C228.00,303.16 227.73,302.85 225.72,303.36 C222.26,304.22 219.00,303.03 219.00,300.88 C219.00,299.32 219.76,299.00 223.50,299.00 C227.63,299.00 228.00,298.80 228.00,296.50 C228.00,294.06 227.83,294.00 220.50,294.00 L 213.00 294.00 L 213.00 319.00 L 221.00 319.00 C228.87,319.00 229.00,318.96 229.00,316.50 ZM 248.57 316.69 C251.65,314.04 252.14,309.71 249.63,307.21 C248.75,306.32 246.10,304.88 243.76,304.02 C239.35,302.39 238.08,299.80 241.38,299.17 C242.42,298.97 244.30,299.36 245.56,300.03 C246.83,300.71 248.57,301.00 249.43,300.66 C253.63,299.05 248.34,294.00 242.45,294.00 C236.42,294.00 232.80,297.07 233.20,301.83 C233.52,305.63 234.45,306.41 242.24,309.44 C244.93,310.48 245.81,311.33 245.38,312.44 C244.71,314.20 238.51,314.63 237.50,313.00 C236.37,311.17 233.00,311.87 233.00,313.94 C233.00,318.99 243.70,320.88 248.57,316.69 ZM 615.00 316.61 C615.00,315.29 615.67,313.95 616.50,313.64 C617.33,313.32 618.00,312.42 618.00,311.64 C618.00,310.85 617.33,309.95 616.50,309.64 C615.36,309.20 615.00,307.36 615.00,302.03 L 615.00 295.00 L 611.60 295.00 C608.84,295.00 607.81,295.62 606.17,298.25 C605.06,300.04 602.76,303.48 601.07,305.90 C596.31,312.71 596.78,314.00 604.00,314.00 C609.73,314.00 610.00,314.11 610.00,316.50 C610.00,318.50 610.50,319.00 612.50,319.00 C614.47,319.00 615.00,318.49 615.00,316.61 ZM 595.50 316.50 C595.50,314.93 594.67,314.39 591.61,314.00 L 587.72 313.50 L 591.36 309.16 C594.13,305.85 595.00,303.91 595.00,301.06 C595.00,295.56 592.42,293.61 585.95,294.23 C580.29,294.77 577.56,296.70 578.60,299.40 C579.08,300.65 579.89,300.97 581.39,300.50 C589.52,297.95 590.78,299.66 585.84,306.50 C584.00,309.04 581.50,312.49 580.27,314.18 C579.04,315.87 578.29,317.66 578.60,318.16 C578.91,318.67 582.84,318.95 587.33,318.79 C594.74,318.53 595.50,318.31 595.50,316.50 ZM 551.82 316.25 C552.11,314.22 551.73,314.00 547.87,314.00 L 543.61 314.00 L 546.68 310.75 C552.51,304.59 553.47,300.19 549.83,296.31 C546.90,293.20 540.56,293.12 537.31,296.17 C536.04,297.37 535.00,298.89 535.00,299.56 C535.00,301.33 538.77,302.04 539.40,300.39 C540.12,298.52 544.91,298.61 545.64,300.51 C546.26,302.12 542.91,307.16 537.23,313.16 C535.31,315.19 534.08,317.32 534.47,317.95 C534.92,318.68 538.05,318.98 543.33,318.79 C550.94,318.52 551.52,318.35 551.82,316.25 ZM 266.79 309.31 L 267.07 300.12 L 270.29 299.81 C272.96,299.55 273.55,299.03 273.82,296.75 L 274.13 294.00 L 253.87 294.00 L 254.18 296.75 C254.47,299.20 254.85,299.46 257.75,299.17 L 261.00 298.85 L 261.00 308.26 C261.00,313.43 261.32,317.99 261.71,318.38 C262.10,318.77 263.34,318.95 264.46,318.79 C266.32,318.53 266.53,317.69 266.79,309.31 ZM 0.00 0.00 L 821.00 0.00 L 625.25 0.09 C518.43,0.13 431.99,0.51 431.99,0.93 C431.99,0.93 432.00,0.93 432.01,0.94 C432.73,1.15 434.84,1.44 437.63,1.71 C420.54,0.72 402.88,0.77 384.66,1.84 C387.81,1.54 390.14,1.26 391.00,1.05 C391.02,1.04 391.03,1.04 391.03,1.03 C391.03,0.57 305.46,0.16 197.25,0.10 ZM 291.34 128.79 L 299.19 125.56 L 298.64 122.15 C298.33,120.28 297.84,118.51 297.54,118.21 C297.24,117.91 292.75,119.34 287.57,121.39 L 278.14 125.13 L 280.17 128.56 C281.29,130.45 282.49,132.00 282.85,132.01 C283.21,132.01 287.03,130.56 291.34,128.79 ZM 397.50 719.50 L 389.25 719.21 L 381.00 718.92 L 381.00 722.39 C381.00,726.38 381.65,726.64 391.81,726.86 L 398.12 727.00 ZM 562.11 312.63 C560.26,310.40 561.09,300.97 563.25,299.61 C567.43,296.99 571.50,305.08 568.83,310.69 C567.31,313.86 563.94,314.83 562.11,312.63 ZM 321.10 107.85 C318.89,101.51 320.12,100.05 327.68,100.01 C333.56,99.99 332.96,107.77 326.92,109.88 C322.46,111.43 322.33,111.39 321.10,107.85 ZM 644.81 203.25 C641.39,199.27 641.81,196.24 646.12,193.93 C647.87,193.00 648.66,193.26 651.10,195.60 C654.45,198.80 654.75,201.01 652.17,203.35 C649.80,205.49 646.70,205.45 644.81,203.25 ZM 353.09 718.08 C351.98,717.38 351.88,716.24 352.59,712.85 C353.63,707.92 355.69,706.91 359.55,709.44 C362.23,711.19 362.90,715.70 360.80,717.80 C359.40,719.20 355.11,719.36 353.09,718.08 ZM 244.53 119.39 C246.78,117.92 249.82,110.49 248.66,109.32 C248.40,109.06 246.10,109.16 243.56,109.54 C239.93,110.09 239.04,110.59 239.42,111.87 C239.68,112.77 240.19,115.19 240.56,117.25 C240.95,119.47 241.13,120.54 241.66,120.76 C242.14,120.96 242.91,120.45 244.40,119.47 ZM 533.43 529.00 C534.17,528.03 534.97,527.12 535.84,526.27 C539.13,523.57 543.30,520.94 547.56,519.12 C555.30,516.03 555.58,517.18 547.85,521.06 C544.36,522.81 539.26,525.88 536.52,527.87 C532.39,530.88 531.86,531.07 533.43,529.00 ZM 186.70 197.50 C185.12,194.18 185.13,194.00 186.83,194.00 C187.81,194.00 189.44,194.60 190.44,195.33 C191.94,196.43 192.05,197.03 191.09,198.83 C189.49,201.82 188.64,201.56 186.70,197.50 ZM 7.60 339.80 C6.95,342.80 6.37,347.97 5.98,354.31 C5.52,361.91 4.64,368.73 4.03,369.47 C3.59,369.99 3.21,371.71 2.90,374.32 C3.33,368.39 3.76,364.12 4.07,363.33 C4.58,361.98 5.00,358.67 5.00,355.98 C5.00,351.19 6.13,344.39 7.60,339.80 ZM 605.75 309.42 C605.43,309.10 606.14,307.18 607.33,305.17 L 609.50 301.50 L 609.82 304.33 C610.00,305.89 609.90,307.81 609.61,308.58 C609.06,310.01 606.83,310.49 605.75,309.42 ZM 521.00 541.27 C519.08,541.04 517.07,540.44 516.55,539.93 C515.06,538.47 523.08,538.90 526.50,540.46 C529.38,541.78 529.40,541.83 527.00,541.76 C525.62,541.72 522.92,541.49 521.00,541.27 ZM 798.79 278.00 C791.89,256.92 778.99,228.08 767.48,208.00 C784.53,237.75 797.97,270.95 807.04,305.15 C804.72,296.71 802.00,287.82 798.79,278.00 ZM 368.57 3.04 C365.23,3.35 361.88,3.68 358.50,4.05 C355.28,4.40 350.55,5.09 346.12,5.83 C349.22,5.20 351.24,4.74 351.76,4.54 C352.52,4.25 359.90,3.60 368.57,3.04 ZM 1.73 398.28 C1.36,421.73 2.26,451.98 4.31,458.94 C2.30,452.12 1.14,422.90 1.73,398.28 ZM 450.17 2.63 C455.79,3.03 461.52,3.58 464.00,3.98 C465.18,4.17 466.78,4.43 468.54,4.70 C462.50,3.87 456.37,3.18 450.17,2.63 ZM 487.60 7.84 C489.22,8.14 490.73,8.44 492.00,8.70 C496.12,9.55 501.52,10.61 504.00,11.04 C501.52,10.61 496.12,9.56 492.00,8.71 C490.54,8.41 489.07,8.12 487.60,7.84 ZM 10.39 327.16 C10.69,323.69 11.61,319.32 12.55,316.64 C11.61,319.32 10.70,323.69 10.40,327.16 C10.32,328.09 10.21,329.05 10.07,330.00 C10.20,329.05 10.31,328.09 10.39,327.16 Z" fill="rgb(232,216,181)"/>
<path d="M 0.00 410.00 L 0.00 0.00 L 197.25 0.10 C306.67,0.16 392.94,0.58 391.00,1.05 C389.08,1.51 379.79,2.36 370.37,2.93 C360.94,3.50 352.57,4.23 351.76,4.54 C350.32,5.09 337.26,7.66 321.61,10.47 C317.27,11.25 313.24,12.36 312.66,12.94 C312.08,13.52 310.00,14.01 308.05,14.02 C306.10,14.03 302.54,14.93 300.14,16.02 C297.74,17.11 295.04,18.00 294.14,18.00 C292.24,18.01 280.53,22.05 277.32,23.80 C276.11,24.46 274.08,25.00 272.79,25.00 C271.50,25.00 269.55,25.63 268.46,26.39 C267.37,27.15 262.88,29.01 258.49,30.52 C254.10,32.03 247.68,34.78 244.22,36.63 C240.77,38.48 237.36,40.00 236.63,40.00 C235.90,40.00 234.53,40.86 233.58,41.91 C232.63,42.96 230.67,44.12 229.21,44.48 C227.76,44.85 224.62,46.46 222.24,48.07 C219.85,49.68 217.44,51.00 216.87,51.00 C216.31,51.00 212.77,52.80 209.00,55.00 C205.23,57.20 201.87,59.00 201.54,59.00 C200.75,59.00 194.70,63.22 193.89,64.34 C193.55,64.80 192.34,65.70 191.21,66.34 C180.81,72.18 176.00,75.24 176.00,75.98 C176.00,76.47 175.21,77.12 174.25,77.43 C173.29,77.74 170.70,79.58 168.50,81.52 C162.82,86.53 162.25,87.01 156.06,91.84 C153.00,94.23 150.14,96.82 149.70,97.59 C149.26,98.37 148.49,99.00 148.00,99.00 C147.50,99.00 146.01,100.01 144.69,101.25 C134.15,111.11 130.95,114.00 130.56,114.00 C129.99,114.00 120.86,123.28 110.24,134.66 C99.32,146.36 98.00,147.90 98.00,149.00 C98.00,149.51 97.13,150.39 96.07,150.96 C95.00,151.53 93.83,152.97 93.45,154.16 C93.07,155.35 91.02,158.14 88.88,160.36 C86.75,162.59 85.00,165.16 85.00,166.09 C85.00,167.01 83.88,168.51 82.50,169.41 C81.12,170.31 80.00,171.62 80.00,172.32 C80.00,173.02 78.31,175.38 76.25,177.55 C74.19,179.73 71.17,183.53 69.53,186.01 C67.90,188.48 65.77,191.31 64.78,192.29 C63.80,193.27 63.00,194.94 63.00,196.00 C63.00,197.06 62.10,198.41 61.00,199.00 C59.90,199.59 59.00,201.00 59.00,202.14 C59.00,203.28 57.88,205.55 56.50,207.18 C55.12,208.82 54.00,210.88 54.00,211.76 C54.00,212.65 53.11,214.32 52.03,215.47 C50.94,216.63 49.90,218.55 49.72,219.74 C49.54,220.93 48.66,222.72 47.77,223.71 C46.88,224.69 45.83,226.85 45.43,228.50 C45.02,230.15 43.86,232.57 42.85,233.88 C41.83,235.20 41.00,237.23 41.00,238.41 C41.00,239.59 40.10,241.33 39.00,242.27 C37.90,243.21 37.00,244.80 37.00,245.80 C37.00,246.79 35.88,249.14 34.50,251.00 C33.12,252.86 32.00,255.47 32.00,256.79 C32.00,258.11 31.10,260.33 30.00,261.73 C28.90,263.13 28.00,265.60 28.00,267.23 C28.00,268.86 27.05,271.52 25.90,273.14 C24.74,274.77 23.54,277.98 23.23,280.29 C22.92,282.60 21.85,285.85 20.84,287.50 C19.83,289.15 19.01,291.69 19.00,293.14 C19.00,294.59 18.11,297.74 17.02,300.14 C15.93,302.54 15.03,305.99 15.02,307.80 C15.01,309.62 14.11,313.07 13.02,315.47 C11.92,317.86 10.74,323.13 10.39,327.16 C10.04,331.20 9.17,335.85 8.45,337.50 C6.59,341.80 5.00,350.31 5.00,355.98 C5.00,358.67 4.58,361.98 4.07,363.33 C3.55,364.68 2.65,376.07 2.06,388.64 C0.83,414.91 2.05,452.02 4.39,459.19 C5.16,461.56 6.01,467.13 6.29,471.56 C6.56,476.00 7.48,481.85 8.33,484.56 C9.19,487.28 10.34,492.68 10.91,496.57 C11.47,500.46 12.62,504.96 13.46,506.57 C14.30,508.18 15.01,511.08 15.04,513.00 C15.07,514.92 15.77,518.30 16.61,520.50 C17.45,522.70 18.56,526.30 19.08,528.50 C19.60,530.70 20.65,534.08 21.40,536.00 C22.16,537.92 24.00,543.33 25.50,548.00 C28.09,556.08 31.46,564.91 34.47,571.50 C35.23,573.15 37.04,577.20 38.50,580.50 C42.55,589.67 49.79,603.74 54.38,611.32 C59.04,619.05 62.11,624.20 64.50,628.34 C65.41,629.90 68.93,635.00 72.32,639.68 C75.72,644.35 79.40,649.62 80.50,651.38 C83.74,656.59 87.19,661.17 91.99,666.63 C94.47,669.45 99.96,675.75 104.20,680.63 C132.56,713.32 166.66,741.86 201.86,762.40 C256.25,794.14 312.14,812.27 374.50,818.40 C386.86,819.61 365.73,819.78 194.25,819.89 L 0.00 820.00 L 0.00 410.00 ZM 444.00 818.90 C501.84,812.45 538.36,802.85 583.50,782.23 C644.09,754.56 705.68,704.09 740.83,653.31 C742.66,650.66 746.74,644.84 749.91,640.37 C763.88,620.64 778.40,593.52 790.32,564.91 C807.68,523.20 815.91,486.92 820.34,432.50 C820.52,430.30 820.74,516.59 820.83,624.25 L 821.00 820.00 L 628.75 819.87 C519.44,819.80 439.74,819.38 444.00,818.90 ZM 819.23 375.25 C814.52,317.51 796.08,257.90 767.48,208.00 C765.43,204.43 762.90,200.00 761.85,198.17 C747.15,172.48 713.64,131.87 687.00,107.46 C669.35,91.29 634.54,64.98 627.23,62.28 C626.28,61.93 625.28,61.35 625.00,61.00 C622.22,57.41 574.34,33.08 569.83,32.97 C569.10,32.95 567.63,32.28 566.56,31.47 C565.49,30.66 563.90,30.00 563.02,30.00 C562.14,30.00 559.66,29.10 557.50,28.00 C555.34,26.90 552.86,26.00 551.99,26.00 C551.11,26.00 549.97,25.59 549.45,25.08 C548.93,24.57 546.03,23.49 543.00,22.67 C537.40,21.14 533.25,19.77 527.00,17.37 C525.08,16.63 521.42,15.58 518.88,15.04 C516.34,14.50 512.97,13.55 511.38,12.94 C509.80,12.33 506.48,11.47 504.00,11.04 C501.52,10.61 496.12,9.55 492.00,8.70 C487.88,7.85 481.12,6.64 477.00,6.01 C472.88,5.39 467.02,4.47 464.00,3.98 C460.98,3.49 453.10,2.78 446.51,2.39 C439.92,2.01 433.39,1.36 432.01,0.94 C430.63,0.52 517.59,0.13 625.25,0.09 L 821.00 0.00 L 821.00 195.00 C821.00,302.25 820.87,390.00 820.71,390.00 C820.56,390.00 819.89,383.36 819.23,375.25 Z" fill="rgb(254,254,254)"/>
</g>
</svg>